
<svg version="1.0" xmlns="http://www.w3.org/2000/svg"
 width="500.000000pt" height="500.000000pt" viewBox="0 0 500.000000 500.000000"
 preserveAspectRatio="xMidYMid meet">

<g transform="translate(0.000000,500.000000) scale(0.100000,-0.100000)"
fill="#000000" stroke="none">
<path d="M0 2500 l0 -2500 2500 0 2500 0 0 2500 0 2500 -2500 0 -2500 0 0
-2500z m2440 -68 l35 -3 0 393 0 393 2 -387 c3 -380 4 -388 23 -388 20 0 20 7
20 387 0 212 2 384 5 381 3 -3 6 -177 5 -386 0 -340 1 -380 16 -386 9 -3 20
-4 25 0 5 3 10 169 11 382 l3 377 5 -380 5 -380 33 -3 32 -3 0 301 0 302 27
21 c15 12 42 32 60 44 l33 22 0 -353 0 -354 25 -4 c13 -3 27 -3 29 0 3 2 5
135 6 295 0 160 3 293 5 296 3 2 5 -131 5 -297 0 -295 0 -302 20 -302 19 0 20
8 23 293 l2 292 3 -296 c2 -284 3 -297 21 -302 11 -3 22 -2 26 1 3 3 5 125 5
271 0 147 1 275 2 286 1 11 5 -112 8 -274 l5 -294 60 -17 c72 -20 246 -88 259
-100 5 -5 -34 2 -85 16 -234 60 -522 90 -793 81 -260 -8 -376 -26 -686 -102
-45 -11 39 28 148 70 l102 38 0 276 1 276 58 43 c32 23 61 42 65 42 3 0 6
-134 6 -298 0 -164 3 -301 6 -304 3 -3 14 -4 25 -1 18 5 19 17 21 242 l3 236
2 -232 c3 -176 6 -233 16 -233 6 0 29 3 50 6 l37 7 2 206 3 206 2 -200 c2
-110 7 -203 11 -207 24 -24 31 18 38 259 l7 252 -37 15 -36 15 0 155 c0 86 4
156 8 156 5 0 17 8 28 18 10 9 39 32 64 50 l45 33 5 -473 5 -473 35 -3z m-223
101 c-1 -60 -3 -11 -3 107 0 118 2 167 3 108 2 -60 2 -156 0 -215z m-1015
-363 c29 0 58 -40 58 -81 0 -48 -36 -79 -91 -79 l-39 0 0 78 c0 43 3 82 7 86
4 4 17 5 28 2 11 -3 28 -6 37 -6z m126 -78 c3 -77 2 -82 -18 -82 -19 0 -20 6
-20 86 0 76 2 85 18 82 14 -3 17 -16 20 -86z m130 72 c23 -16 30 -44 12 -44
-6 0 -21 7 -34 16 -16 10 -26 12 -31 5 -9 -15 3 -31 23 -31 26 0 62 -29 62
-50 0 -29 -28 -50 -67 -50 -34 0 -73 22 -73 42 0 11 38 10 45 -2 8 -13 55 -13
55 0 0 6 -20 19 -45 30 -36 15 -45 24 -45 44 0 26 32 56 60 56 9 0 26 -7 38
-16z m172 -6 c0 -11 -7 -18 -20 -18 -18 0 -20 -7 -20 -65 0 -58 -2 -65 -20
-65 -18 0 -20 7 -20 65 0 63 -1 65 -25 65 -14 0 -25 6 -25 13 0 21 4 22 69 23
53 1 61 -2 61 -18z m115 2 c20 -16 19 -64 0 -80 -13 -11 -13 -15 -2 -29 28
-32 29 -41 5 -41 -15 0 -30 10 -40 28 l-17 27 -1 -27 c0 -21 -5 -28 -20 -28
-18 0 -20 7 -20 78 0 43 3 81 6 85 9 9 73 0 89 -13z m83 -68 c3 -77 2 -82 -18
-82 -19 0 -20 6 -20 86 0 76 2 85 18 82 14 -3 17 -16 20 -86z m139 77 c26 -10
43 -25 43 -41 0 -12 -35 -9 -47 3 -17 17 -61 2 -68 -22 -7 -23 18 -69 38 -69
7 0 22 7 33 15 25 19 44 19 44 1 0 -22 -40 -46 -77 -46 -83 0 -108 119 -33
157 31 16 32 16 67 2z m191 -13 c2 -11 -4 -16 -17 -16 -19 0 -21 -6 -21 -65 0
-58 -2 -65 -20 -65 -18 0 -20 7 -20 65 0 63 -1 65 -25 65 -14 0 -25 6 -25 13
0 21 4 22 67 21 44 -2 59 -6 61 -18z m161 14 c23 -12 37 -111 20 -141 -13 -25
-76 -23 -93 3 -14 23 0 35 24 20 28 -17 40 -15 40 8 0 11 -7 20 -15 20 -20 0
-19 26 1 34 26 10 5 26 -26 19 -24 -4 -30 -2 -30 11 0 9 10 21 23 26 29 12 35
12 56 0z m221 -10 c11 -6 23 -23 27 -38 17 -66 -17 -112 -84 -112 l-43 0 0 78
c0 43 3 82 6 85 9 9 69 1 94 -13z m158 -4 c3 -12 -4 -16 -27 -16 -21 0 -31 -5
-31 -15 0 -10 10 -15 30 -15 20 0 30 -5 30 -15 0 -10 -10 -15 -30 -15 -23 0
-30 -4 -30 -20 0 -16 7 -20 30 -20 20 0 30 -5 30 -15 0 -11 -12 -15 -50 -15
l-50 0 0 78 c0 43 2 81 5 83 2 3 23 4 47 3 31 -1 44 -6 46 -18z m58 11 c6 -3
17 -27 24 -52 7 -25 16 -45 20 -45 4 0 13 19 20 41 14 42 34 69 51 69 15 0 11
-16 -23 -95 -47 -110 -57 -105 -123 77 -7 17 9 20 31 5z m242 -9 c3 -14 -3
-18 -27 -18 -39 0 -43 -27 -4 -32 37 -4 40 -24 3 -31 -40 -9 -41 -37 0 -37 20
0 30 -5 30 -15 0 -11 -12 -15 -50 -15 l-50 0 0 78 c0 43 2 81 4 83 3 2 24 4
48 4 33 0 44 -4 46 -17z m70 -51 c3 -67 3 -67 32 -67 20 0 30 -5 30 -15 0 -11
-12 -15 -50 -15 l-50 0 0 78 c0 43 3 82 7 86 17 17 28 -6 31 -67z m231 36 c45
-51 5 -132 -67 -133 -71 0 -110 91 -59 137 44 40 87 39 126 -4z m127 28 c6 0
16 -12 22 -25 15 -33 -5 -70 -41 -74 -23 -3 -27 -8 -27 -33 0 -22 -5 -29 -19
-29 -16 0 -19 9 -20 76 -1 41 1 79 3 83 5 7 30 8 82 2z m149 -12 c0 -8 -12
-15 -27 -17 -36 -4 -38 -32 -3 -32 19 0 25 -5 25 -21 0 -17 -5 -20 -25 -17
-19 4 -25 1 -25 -13 0 -14 7 -19 30 -19 20 0 30 -5 30 -15 0 -11 -12 -15 -50
-15 l-50 0 0 83 0 82 48 -1 c32 -1 47 -6 47 -15z m132 -5 c17 -24 16 -49 -3
-69 -15 -14 -15 -18 0 -40 21 -31 20 -35 -4 -35 -10 0 -24 9 -30 20 -6 11 -16
20 -22 20 -5 0 -8 -9 -5 -20 4 -15 0 -20 -14 -20 -17 0 -19 8 -19 86 l0 87 42
-6 c23 -3 48 -14 55 -23z m150 4 c17 -13 17 -38 1 -38 -7 0 -21 7 -31 15 -19
13 -47 11 -47 -5 0 -5 19 -14 43 -22 35 -11 43 -18 45 -41 5 -41 -14 -57 -64
-57 -42 0 -64 17 -64 48 0 14 30 8 39 -7 9 -15 57 -11 54 4 -2 6 -15 14 -30
19 -65 20 -81 69 -33 93 26 14 65 9 87 -9z m-697 -269 c0 -5 -11 -7 -24 -3
-43 10 -42 -22 2 -45 44 -23 16 -79 -33 -67 -33 8 -24 25 10 18 33 -6 34 20 0
42 -29 19 -33 51 -9 64 19 11 54 4 54 -9z m-1233 -5 c3 -9 1 -25 -6 -35 -9
-15 -8 -26 4 -49 9 -17 11 -30 6 -30 -6 0 -18 14 -26 31 -19 36 -41 33 -37 -4
2 -19 -1 -27 -12 -27 -13 0 -16 13 -16 65 l0 65 40 0 c28 0 43 -5 47 -16z
m151 9 c-34 -5 -41 -43 -8 -43 11 0 20 -4 20 -10 0 -5 -9 -10 -20 -10 -13 0
-20 -7 -20 -20 0 -15 7 -20 26 -20 14 0 23 -4 19 -10 -3 -5 -19 -10 -36 -10
l-29 0 0 65 0 65 38 -1 c30 -2 32 -3 10 -6z m181 -23 c6 -16 16 -44 22 -60 14
-36 6 -51 -11 -21 -15 28 -66 29 -73 1 -3 -11 -10 -20 -16 -20 -7 0 -4 18 8
48 10 26 21 55 24 65 10 27 33 20 46 -13z m141 -25 c0 -52 1 -55 25 -55 14 0
25 -4 25 -10 0 -5 -18 -10 -40 -10 l-40 0 0 65 c0 51 3 65 15 65 12 0 15 -13
15 -55z m203 45 c-20 -8 -23 -17 -23 -65 0 -30 -4 -55 -10 -55 -6 0 -10 26
-10 59 0 48 -3 60 -17 64 -10 3 5 5 32 5 39 1 45 -1 28 -8z m206 -4 c7 -8 11
-32 9 -52 -2 -30 -9 -42 -30 -54 -25 -13 -31 -13 -55 0 -22 12 -29 24 -31 54
-4 48 11 66 58 66 21 0 43 -6 49 -14z m181 -1 c11 -13 11 -20 0 -39 -9 -18 -9
-28 0 -46 18 -34 5 -35 -20 0 -24 34 -40 32 -40 -6 0 -14 -4 -22 -10 -19 -5 3
-10 33 -10 66 l0 59 34 0 c18 0 39 -7 46 -15z"/>
<path d="M1170 2090 c0 -54 1 -55 31 -40 34 19 20 90 -18 90 -9 0 -13 -16 -13
-50z"/>
<path d="M1690 2125 c0 -15 6 -25 14 -25 22 0 30 19 16 35 -18 22 -30 18 -30
-10z"/>
<path d="M2480 2090 c0 -54 9 -61 40 -30 24 24 24 29 4 58 -27 39 -44 28 -44
-28z"/>
<path d="M3202 2128 c-27 -27 -10 -78 27 -78 49 0 68 42 33 73 -22 20 -43 22
-60 5z"/>
<path d="M3380 2120 c0 -13 7 -20 20 -20 13 0 20 7 20 20 0 13 -7 20 -20 20
-13 0 -20 -7 -20 -20z"/>
<path d="M3646 2134 c-10 -26 -7 -34 14 -34 13 0 20 7 20 19 0 24 -26 35 -34
15z"/>
<path d="M1864 1875 c-7 -18 3 -35 22 -35 20 0 30 30 13 41 -20 12 -29 11 -35
-6z"/>
<path d="M2222 1860 c-11 -29 -7 -40 14 -40 16 0 18 27 4 50 -7 12 -11 10 -18
-10z"/>
<path d="M2732 1878 c-7 -7 -12 -24 -12 -38 0 -51 52 -69 72 -25 22 49 -25 98
-60 63z"/>
<path d="M2930 1866 c0 -20 5 -26 21 -26 15 0 20 5 17 22 -5 34 -38 37 -38 4z"/>
</g>
</svg>
