<?xml version="1.0" standalone="no"?>
<!DOCTYPE svg PUBLIC "-//W3C//DTD SVG 20010904//EN"
 "http://www.w3.org/TR/2001/REC-SVG-20010904/DTD/svg10.dtd">
<svg version="1.0" xmlns="http://www.w3.org/2000/svg"
 width="500.000000pt" height="500.000000pt" viewBox="0 0 500.000000 500.000000"
 preserveAspectRatio="xMidYMid meet">

<g transform="translate(0.000000,500.000000) scale(0.100000,-0.100000)"
fill="#000000" stroke="none">
<path d="M2140 4975 c-436 -61 -861 -245 -1206 -522 -124 -101 -332 -315 -430
-444 -266 -351 -424 -740 -484 -1192 -13 -103 -13 -110 5 -103 10 3 36 -16 73
-53 80 -80 111 -95 197 -96 81 0 135 23 246 106 153 113 235 117 336 14 82
-84 103 -192 58 -299 -33 -78 -135 -156 -205 -156 -37 0 -113 37 -195 95 -95
67 -162 97 -232 103 -82 6 -151 -26 -213 -99 -30 -36 -48 -49 -61 -46 -25 7
-25 -22 1 -178 61 -375 182 -682 396 -1005 379 -573 1010 -972 1699 -1075 138
-21 164 -20 158 4 -3 13 11 32 51 65 68 59 95 111 97 191 3 104 -19 151 -152
331 -55 74 -48 176 18 253 49 58 111 84 203 85 143 1 248 -79 258 -198 6 -72
-8 -110 -75 -197 -69 -92 -102 -163 -110 -240 -10 -94 9 -143 84 -215 35 -33
63 -69 63 -79 0 -16 7 -17 68 -10 556 58 1075 309 1485 720 375 375 627 866
702 1370 20 134 20 175 -1 175 -9 0 -47 29 -84 63 -127 121 -237 117 -419 -13
-113 -82 -138 -94 -196 -94 -86 0 -173 62 -211 152 -32 74 -14 222 34 277 36
42 85 75 133 89 50 15 52 15 107 -13 32 -16 106 -59 166 -95 122 -74 170 -91
240 -82 63 7 121 42 175 106 26 31 49 49 57 46 18 -7 18 11 -1 139 -102 718
-488 1328 -1098 1735 -320 214 -716 356 -1099 395 -63 6 -66 5 -61 -13 4 -15
-12 -37 -60 -84 -72 -70 -87 -105 -87 -198 1 -75 34 -151 113 -257 36 -48 70
-106 76 -128 25 -96 -50 -217 -158 -254 -44 -14 -153 -14 -202 1 -87 25 -159
122 -159 211 0 62 11 87 74 168 30 38 67 95 83 127 24 50 28 69 28 147 0 80
-3 94 -26 130 -15 23 -44 54 -65 70 -48 36 -55 45 -50 68 5 20 -8 21 -144 2z
m-345 -366 c72 -50 83 -141 27 -221 -141 -198 -165 -247 -181 -364 -19 -130 7
-219 126 -438 33 -60 38 -77 38 -135 0 -54 -6 -76 -30 -119 -53 -98 -177 -163
-280 -148 -26 4 -77 27 -127 57 -140 85 -213 108 -338 109 -135 0 -256 -45
-375 -141 -33 -27 -74 -56 -91 -64 -67 -32 -141 -11 -184 52 -21 31 -25 48
-25 113 0 66 4 84 35 145 39 77 93 127 158 145 48 12 88 1 162 -44 80 -49 143
-67 236 -68 127 -1 295 49 386 114 45 31 105 130 135 222 22 68 26 99 27 196
0 130 -11 172 -75 281 -66 111 -49 184 64 266 102 75 237 93 312 42z m1660 -3
c101 -46 165 -126 165 -205 0 -29 -11 -58 -38 -103 -80 -130 -96 -235 -62
-398 39 -189 101 -280 235 -345 94 -45 177 -65 272 -65 102 0 177 20 278 75
92 50 120 54 181 24 191 -92 224 -419 47 -455 -48 -10 -104 12 -193 77 -227
164 -402 187 -607 80 -190 -100 -205 -106 -269 -105 -142 1 -274 132 -274 272
0 64 13 97 73 184 65 96 89 164 95 281 8 161 -22 255 -128 395 -98 130 -112
208 -50 271 16 16 46 34 67 39 54 16 148 6 208 -22z m-2419 -309 c38 -33 45
-114 16 -180 -27 -61 -95 -133 -157 -165 -70 -36 -162 -38 -199 -3 -36 34 -35
88 3 166 45 91 108 150 198 185 66 26 106 25 139 -3z m3092 -8 c155 -77 255
-279 169 -343 -62 -46 -202 -11 -282 70 -53 54 -85 127 -85 192 0 46 4 58 29
83 40 39 88 39 169 -2z m-1513 -593 c213 -99 212 -373 -2 -477 -60 -29 -160
-30 -224 -2 -170 75 -215 294 -88 422 52 52 122 81 199 81 47 0 79 -7 115 -24z
m-7 -891 c78 -23 144 -82 184 -162 29 -60 33 -77 33 -148 -1 -65 -5 -90 -26
-135 -55 -115 -161 -185 -284 -185 -89 0 -140 16 -199 61 -135 103 -164 293
-67 445 72 115 219 165 359 124z m-953 -66 c90 -45 139 -132 139 -244 -1 -82
-17 -126 -69 -183 -52 -59 -112 -85 -194 -85 -78 0 -123 17 -179 67 -103 93
-115 283 -25 381 87 94 218 119 328 64z m1948 -6 c57 -32 109 -99 127 -161 35
-128 -30 -271 -150 -325 -55 -25 -158 -27 -211 -4 -97 40 -162 142 -161 253 1
209 214 337 395 237z m-3048 -883 c15 -6 64 -37 108 -69 45 -33 117 -76 160
-97 70 -33 90 -38 177 -42 111 -5 190 13 290 68 142 78 182 94 244 94 109 2
204 -62 257 -171 45 -93 36 -146 -47 -277 -70 -110 -94 -178 -101 -283 -10
-148 36 -288 132 -403 88 -105 106 -175 62 -241 -32 -48 -79 -69 -154 -69
-151 0 -302 118 -303 235 0 18 18 61 45 108 61 103 79 178 72 287 -11 152 -56
286 -122 358 -96 107 -303 174 -467 152 -93 -13 -142 -30 -214 -76 -94 -60
-151 -54 -237 25 -123 114 -138 333 -27 393 39 20 85 23 125 8z m4025 -12 c67
-46 87 -136 55 -244 -35 -118 -114 -194 -209 -202 -49 -4 -60 0 -122 36 -105
62 -146 74 -254 75 -111 0 -193 -18 -297 -67 -117 -56 -188 -150 -227 -301
-41 -164 -27 -292 46 -423 56 -100 62 -127 38 -177 -24 -51 -35 -64 -92 -107
-118 -90 -287 -93 -349 -6 -49 68 -35 127 62 255 99 129 147 274 135 399 -9
85 -37 162 -102 275 -80 141 -88 225 -28 326 43 75 153 133 249 133 44 0 98
-24 210 -94 75 -46 138 -65 240 -72 142 -10 288 36 395 126 88 73 120 90 170
90 32 0 57 -7 80 -22z m-1961 -68 c56 -25 115 -83 139 -139 8 -20 16 -65 16
-101 1 -55 -4 -73 -30 -120 -108 -193 -392 -183 -493 18 -30 59 -34 106 -16
170 13 46 28 68 75 114 92 90 191 108 309 58z m-1745 -717 c109 -39 196 -157
199 -269 1 -62 -17 -89 -69 -103 -134 -37 -364 190 -330 324 15 59 107 81 200
48z m3416 2 c98 -51 2 -267 -152 -344 -149 -75 -243 -2 -193 148 26 81 124
177 203 201 44 13 111 11 142 -5z"/>
</g>
</svg>
