<svg id="Camada_1" data-name="Camada 1" xmlns="http://www.w3.org/2000/svg" xmlns:xlink="http://www.w3.org/1999/xlink" viewBox="0 0 800 278"><defs><linearGradient id="Gradiente_sem_nome_2" x1="351.68" y1="139" x2="381.74" y2="139" gradientUnits="userSpaceOnUse"><stop offset="0" stop-color="#2f72a3"/><stop offset="0.99" stop-color="#21d8a3"/></linearGradient></defs><title>CETASP_Nome</title><path d="M382.55,151.78a1.56,1.56,0,0,0,.79.22c.45,0,.72-.24.72-.58s-.18-.5-.64-.68-.9-.49-.9-1a1,1,0,0,1,1.11-.93,1.55,1.55,0,0,1,.76.17l-.12.36a1.36,1.36,0,0,0-.65-.16c-.47,0-.64.28-.64.51s.21.48.68.66.87.5.87,1-.39,1-1.2,1a1.77,1.77,0,0,1-.87-.22Z" style="fill:#21d8a3"/><path d="M387.35,151.07a1.2,1.2,0,0,1-1.22,1.3,1.17,1.17,0,0,1-1.18-1.26,1.2,1.2,0,0,1,1.22-1.3A1.16,1.16,0,0,1,387.35,151.07Zm-1.95,0c0,.54.31.94.75.94s.75-.4.75-1-.21-.94-.74-.94S385.4,150.63,385.4,151.1Z" style="fill:#21d8a3"/><path d="M387.91,148.72h.45v3.6h-.45Z" style="fill:#21d8a3"/><path d="M391.16,151.65c0,.25,0,.48,0,.67h-.4l0-.4h0a.92.92,0,0,1-.81.46c-.39,0-.85-.21-.85-1.08v-1.44h.45v1.36c0,.47.14.78.55.78a.65.65,0,0,0,.59-.41.65.65,0,0,0,0-.23v-1.51h.45Z" style="fill:#21d8a3"/><path d="M393.65,152.23a1.59,1.59,0,0,1-.63.14l-.13.2a.38.38,0,0,1,.36.35c0,.3-.25.41-.53.41a.72.72,0,0,1-.35-.09l.08-.22a.53.53,0,0,0,.27.08c.11,0,.22,0,.22-.16s-.16-.19-.4-.21l.21-.37a1.16,1.16,0,0,1-1-1.24,1.25,1.25,0,0,1,1.32-1.3,1.49,1.49,0,0,1,.62.13l-.1.35a1,1,0,0,0-.52-.12.93.93,0,0,0,0,1.85,1.27,1.27,0,0,0,.55-.12Z" style="fill:#21d8a3"/><path d="M396.37,151.07a1.2,1.2,0,0,1-1.22,1.3,1.17,1.17,0,0,1-1.18-1.26,1.2,1.2,0,0,1,1.22-1.3A1.16,1.16,0,0,1,396.37,151.07Zm-1.95,0c0,.54.31.94.75.94s.75-.4.75-1-.21-.94-.74-.94S394.42,150.63,394.42,151.1Zm.12-1.65c0-.33.13-.53.35-.53a.62.62,0,0,1,.31.11.51.51,0,0,0,.21.09c.08,0,.13,0,.14-.22h.24c0,.34-.11.51-.35.51a.68.68,0,0,1-.31-.1.45.45,0,0,0-.22-.09c-.08,0-.12.09-.13.23Z" style="fill:#21d8a3"/><path d="M397.18,151.18a.79.79,0,0,0,.84.85,1.61,1.61,0,0,0,.68-.13l.08.32a2,2,0,0,1-.82.15,1.14,1.14,0,0,1-1.21-1.24,1.19,1.19,0,0,1,1.15-1.32,1,1,0,0,1,1,1.16,1.69,1.69,0,0,1,0,.21Zm1.31-.32a.64.64,0,0,0-.62-.73.74.74,0,0,0-.68.73Z" style="fill:#21d8a3"/><path d="M399.41,151.87a1.17,1.17,0,0,0,.59.18c.32,0,.48-.16.48-.37s-.13-.33-.46-.45-.65-.4-.65-.7a.76.76,0,0,1,.85-.72,1.22,1.22,0,0,1,.6.15l-.11.32a1,1,0,0,0-.5-.14c-.26,0-.41.15-.41.33s.15.29.47.42.64.38.64.74-.33.74-.92.74a1.4,1.4,0,0,1-.69-.17Z" style="fill:#21d8a3"/><path d="M402.8,151.18a.79.79,0,0,0,.84.85,1.61,1.61,0,0,0,.68-.13l.08.32a2,2,0,0,1-.82.15,1.14,1.14,0,0,1-1.21-1.24,1.19,1.19,0,0,1,1.15-1.32,1,1,0,0,1,1,1.16,1.69,1.69,0,0,1,0,.21Zm1.31-.32a.64.64,0,0,0-.62-.73.74.74,0,0,0-.68.73Z" style="fill:#21d8a3"/><path d="M405.1,150.53c0-.25,0-.46,0-.66h.39l0,.4h0a.85.85,0,0,1,.77-.45.73.73,0,0,1,.69.49h0a1,1,0,0,1,.27-.32.84.84,0,0,1,.54-.17c.32,0,.81.21.81,1.07v1.45h-.44v-1.39c0-.47-.17-.76-.53-.76a.58.58,0,0,0-.53.41.73.73,0,0,0,0,.22v1.52h-.44v-1.47c0-.39-.17-.67-.51-.67a.67.67,0,0,0-.59.66v1.48h-.44Z" style="fill:#21d8a3"/><path d="M410.42,148.95a6.33,6.33,0,0,1,.94-.07,2,2,0,0,1,1.38.43,1.57,1.57,0,0,1,.48,1.23,1.81,1.81,0,0,1-.49,1.33,2.11,2.11,0,0,1-1.51.49,7.15,7.15,0,0,1-.8,0Zm.44,3a2.78,2.78,0,0,0,.45,0,1.31,1.31,0,0,0,1.46-1.45,1.22,1.22,0,0,0-1.38-1.32,2.52,2.52,0,0,0-.52,0Z" style="fill:#21d8a3"/><path d="M414,151.18a.79.79,0,0,0,.84.85,1.61,1.61,0,0,0,.68-.13l.08.32a2,2,0,0,1-.82.15,1.14,1.14,0,0,1-1.21-1.24,1.19,1.19,0,0,1,1.15-1.32,1,1,0,0,1,1,1.16,1.65,1.65,0,0,1,0,.21Zm1.31-.32a.64.64,0,0,0-.62-.73.74.74,0,0,0-.68.73Z" style="fill:#21d8a3"/><path d="M416.28,151.87a1.17,1.17,0,0,0,.59.18c.32,0,.48-.16.48-.37s-.13-.33-.46-.45-.65-.4-.65-.7a.76.76,0,0,1,.85-.72,1.22,1.22,0,0,1,.6.15l-.11.32a1,1,0,0,0-.5-.14c-.26,0-.41.15-.41.33s.15.29.47.42.64.38.64.74-.33.74-.92.74a1.4,1.4,0,0,1-.69-.17Z" style="fill:#21d8a3"/><path d="M418.6,151.18a.79.79,0,0,0,.84.85,1.61,1.61,0,0,0,.68-.13l.08.32a2,2,0,0,1-.82.15,1.14,1.14,0,0,1-1.21-1.24,1.19,1.19,0,0,1,1.15-1.32,1,1,0,0,1,1,1.16,1.65,1.65,0,0,1,0,.21Zm1.31-.32a.64.64,0,0,0-.62-.73.74.74,0,0,0-.68.73Z" style="fill:#21d8a3"/><path d="M420.89,150.53c0-.25,0-.46,0-.66h.4l0,.41h0a.9.9,0,0,1,.81-.46c.34,0,.87.2.87,1v1.47h-.45v-1.42c0-.4-.15-.73-.57-.73a.63.63,0,0,0-.6.46.64.64,0,0,0,0,.21v1.48h-.45Z" style="fill:#21d8a3"/><path d="M423.81,149.87l.48,1.38a6.34,6.34,0,0,1,.2.63h0c.06-.2.13-.41.21-.63l.48-1.38h.47l-1,2.46h-.43l-.93-2.46Z" style="fill:#21d8a3"/><path d="M428.25,151.07a1.2,1.2,0,0,1-1.22,1.3,1.17,1.17,0,0,1-1.18-1.26,1.2,1.2,0,0,1,1.22-1.3A1.16,1.16,0,0,1,428.25,151.07Zm-1.95,0c0,.54.31.94.75.94s.75-.4.75-1-.21-.94-.74-.94S426.3,150.63,426.3,151.1Z" style="fill:#21d8a3"/><path d="M428.81,148.72h.45v3.6h-.45Z" style="fill:#21d8a3"/><path d="M430.18,149.87l.48,1.38a6.34,6.34,0,0,1,.2.63h0c.06-.2.13-.41.21-.63l.48-1.38H432l-1,2.46h-.43l-.93-2.46Z" style="fill:#21d8a3"/><path d="M432.95,149.18a.28.28,0,0,1-.55,0,.27.27,0,0,1,.28-.28A.26.26,0,0,1,432.95,149.18Zm-.5,3.15v-2.46h.45v2.46Z" style="fill:#21d8a3"/><path d="M433.64,150.53c0-.25,0-.46,0-.66H434l0,.4h0a.85.85,0,0,1,.77-.45.73.73,0,0,1,.69.49h0a1,1,0,0,1,.27-.32.84.84,0,0,1,.54-.17c.32,0,.81.21.81,1.07v1.45h-.44v-1.39c0-.47-.17-.76-.53-.76a.58.58,0,0,0-.53.41.74.74,0,0,0,0,.22v1.52h-.44v-1.47c0-.39-.17-.67-.51-.67a.61.61,0,0,0-.55.45.62.62,0,0,0,0,.22v1.48h-.44Z" style="fill:#21d8a3"/><path d="M438.12,151.18a.79.79,0,0,0,.84.85,1.61,1.61,0,0,0,.68-.13l.08.32a2,2,0,0,1-.82.15,1.14,1.14,0,0,1-1.21-1.24,1.19,1.19,0,0,1,1.15-1.32,1,1,0,0,1,1,1.16,1.73,1.73,0,0,1,0,.21Zm1.31-.32a.64.64,0,0,0-.62-.73.74.74,0,0,0-.68.73Z" style="fill:#21d8a3"/><path d="M440.41,150.53c0-.25,0-.46,0-.66h.4l0,.41h0a.9.9,0,0,1,.81-.46c.34,0,.87.2.87,1v1.47h-.45v-1.42c0-.4-.15-.73-.57-.73a.63.63,0,0,0-.6.46.64.64,0,0,0,0,.21v1.48h-.45Z" style="fill:#21d8a3"/><path d="M443.74,149.16v.71h.64v.34h-.64v1.32c0,.3.09.48.33.48a1,1,0,0,0,.26,0l0,.33a1.09,1.09,0,0,1-.4.06.62.62,0,0,1-.48-.19.91.91,0,0,1-.17-.64v-1.34h-.38v-.34h.38v-.59Z" style="fill:#21d8a3"/><path d="M447.07,151.07a1.2,1.2,0,0,1-1.22,1.3,1.17,1.17,0,0,1-1.18-1.26,1.2,1.2,0,0,1,1.22-1.3A1.16,1.16,0,0,1,447.07,151.07Zm-1.95,0c0,.54.31.94.75.94s.75-.4.75-1-.21-.94-.74-.94S445.12,150.63,445.12,151.1Z" style="fill:#21d8a3"/><path d="M392.37,145.9a9.44,9.44,0,0,1-3.89.7c-4.15,0-7.28-2.62-7.28-7.46a7.33,7.33,0,0,1,7.7-7.74,7.9,7.9,0,0,1,3.5.66l-.46,1.55a6.93,6.93,0,0,0-3-.61c-3.45,0-5.75,2.21-5.75,6.08,0,3.61,2.08,5.93,5.66,5.93a7.62,7.62,0,0,0,3.1-.61Z" style="fill:#bdccd4"/><path d="M402.38,139.47h-5.73v5.31H403v1.6h-8.29V131.64h8v1.6h-6.06v4.66h5.73Z" style="fill:#bdccd4"/><path d="M408.66,133.26h-4.48v-1.62h10.91v1.62h-4.5v13.12h-1.92Z" style="fill:#bdccd4"/><path d="M417.47,141.74l-1.53,4.64h-2l5-14.74h2.3l5,14.74h-2l-1.57-4.64Zm4.83-1.49L420.86,136c-.33-1-.55-1.84-.77-2.69h0c-.22.87-.46,1.77-.74,2.67l-1.44,4.26Z" style="fill:#bdccd4"/><path d="M428.2,144.06a6.74,6.74,0,0,0,3.41,1c1.95,0,3.08-1,3.08-2.51s-.79-2.16-2.78-2.93c-2.41-.85-3.89-2.1-3.89-4.18,0-2.3,1.9-4,4.77-4a6.7,6.7,0,0,1,3.26.72l-.52,1.55a5.87,5.87,0,0,0-2.8-.7c-2,0-2.78,1.2-2.78,2.21,0,1.38.9,2.06,2.93,2.84,2.49,1,3.76,2.16,3.76,4.33s-1.68,4.24-5.16,4.24a7.62,7.62,0,0,1-3.76-.94Z" style="fill:#bdccd4"/><path d="M439.24,131.82a22,22,0,0,1,3.65-.28,6.05,6.05,0,0,1,4.13,1.22,4,4,0,0,1,1.29,3.08,4.34,4.34,0,0,1-1.14,3.15,6.11,6.11,0,0,1-4.5,1.62,6.55,6.55,0,0,1-1.53-.13v5.9h-1.9Zm1.9,7.11a6.38,6.38,0,0,0,1.57.15c2.3,0,3.7-1.12,3.7-3.15S445,133,442.94,133a8,8,0,0,0-1.79.15Z" style="fill:#bdccd4"/><path d="M373.51,151h-9.67a3.67,3.67,0,0,1-3.17-1.83l-4.84-8.38a3.67,3.67,0,0,1,0-3.66l4.84-8.38a3.67,3.67,0,0,1,3.17-1.83h1.08a3.47,3.47,0,0,1,2.68,1.27h-3.77a2.39,2.39,0,0,0-2.07,1.2l-4.84,8.38a2.4,2.4,0,0,0,0,2.39l4.84,8.38a2.4,2.4,0,0,0,2.07,1.2h9.67a2.39,2.39,0,0,0,2.07-1.2l1-1.81a.27.27,0,0,0,0-.31l-1.21-1.3a.26.26,0,0,0-.22-.08.26.26,0,0,0-.2.13l-.84,1.45a1.78,1.78,0,0,1-1.54.89h-7.81a1.77,1.77,0,0,1-1.54-.89l-3.91-6.76a1.78,1.78,0,0,1,0-1.77l3.91-6.76a1.77,1.77,0,0,1,1.54-.89h7.81a1.77,1.77,0,0,1,1.54.89l1.23,2.14a.28.28,0,0,0,.15.12,1.26,1.26,0,1,1-1.45.48.27.27,0,0,0,0-.29L373,132a.5.5,0,0,0-.44-.25h-7.81a.5.5,0,0,0-.44.25l-3.91,6.76a.5.5,0,0,0,0,.5l3.91,6.76a.5.5,0,0,0,.44.25h7.81A.5.5,0,0,0,373,146l1.65-2.86,3.5,3.5-1.48,2.56A3.66,3.66,0,0,1,373.51,151ZM354.4,135.38l4.89-8.47a4.17,4.17,0,0,1,3.6-2.08h11.56a4.16,4.16,0,0,1,3.6,2.08l1,1.68a.26.26,0,0,1-.06.34l-1.26,1a.26.26,0,0,1-.4-.07l-.62-1.08a3.66,3.66,0,0,0-3.17-1.83h-5.08a3.47,3.47,0,0,0,2.68,1.27h2.39a2.39,2.39,0,0,1,2.07,1.2l1.65,2.85,1.07-1.06.1-.07a8.46,8.46,0,0,0,1.07-1.1l1.19-1.19-1.49-2.59a5.43,5.43,0,0,0-4.7-2.72H362.89a5.44,5.44,0,0,0-4.7,2.72l-4,6.88a2,2,0,0,0,.18,2.23Zm11.13,17.79h-2.64a4.16,4.16,0,0,1-3.6-2.08l-5.78-10a4.17,4.17,0,0,1-.23-3.7h0a1.27,1.27,0,0,0-.18-1.3l-.33-.41-.36.62a5.43,5.43,0,0,0,0,5.43l5.78,10a5.44,5.44,0,0,0,4.7,2.71h0a3.38,3.38,0,0,0,2.61-1.24Zm14.73-6a1.3,1.3,0,0,0-1,1,1.07,1.07,0,0,0,0,.56.28.28,0,0,1,0,.22l-1.19,2.06a4.16,4.16,0,0,1-3.6,2.08H369a3.38,3.38,0,0,0-2.61,1.24l0,0h8.09a5.43,5.43,0,0,0,4.7-2.71l1.08-1.88a.26.26,0,0,1,.24-.13,1.26,1.26,0,1,0-.22-2.51Z" style="fill:url(#Gradiente_sem_nome_2)"/></svg>