<?xml version="1.0" encoding="UTF-8"?>
<svg width="184px" height="92px" viewBox="0 0 184 92" version="1.1" xmlns="http://www.w3.org/2000/svg" xmlns:xlink="http://www.w3.org/1999/xlink">
    <g stroke="none" stroke-width="1" fill="none" fill-rule="evenodd">
        <g transform="translate(-151.000000, -4.000000)">
            <g transform="translate(6.000000, 4.000000)">
                <g transform="translate(145.000000, 0.000000)">
                    <path d="M42.9288215,9.03839546 C42.8626427,8.51664367 42.7288013,8.00567097 42.5306545,7.51829505 C42.4795643,7.33194208 42.3522676,7.1755925 42.1798741,7.0874561 C42.0659041,7.05790543 41.9464199,7.05657122 41.8318148,7.08356952 L40.0448244,7.35624793 C39.8952559,7.36305999 39.7520443,7.41855148 39.6371018,7.51423181 C39.4043549,7.75832448 39.633541,8.15137534 39.626416,8.48812743 C39.6184033,8.86680151 39.2810139,9.17417288 38.9151472,9.27586505 C38.5416836,9.35111563 38.1564467,9.3463524 37.7849687,9.26189105 L35.2862277,8.87465768 C36.022139,8.64036307 36.6771692,8.20445691 37.1765497,7.616696 C37.5053772,7.22823306 37.6803175,6.50298269 37.205089,6.31902414 C37.0638888,6.28038272 36.9166561,6.26859369 36.7710822,6.28427288 C35.6389781,6.29305124 34.7481065,5.35043546 33.6882683,4.95343619 C32.2967962,4.46590327 30.7487397,4.9261107 29.852087,6.09385909 L31.1831958,6.15785857 C31.3084255,6.15096645 31.4326057,6.18399348 31.537762,6.25215919 C31.8294796,6.49117458 31.4667998,6.95027068 31.5078958,7.32454233 C31.5612896,7.81080204 32.2087231,7.91462476 32.6967686,7.96379521 C33.184814,8.01296565 33.8039562,8.40839616 33.5691968,8.83790484 C31.116225,9.68047847 28.6200598,7.1908566 26.0439207,7.49732169 C25.391915,7.57488708 24.7762433,7.83031793 24.1396728,7.99093232 C20.2510366,8.97208346 16.2308768,6.35425946 12.258419,6.90866845 C11.3752946,7.05880365 10.507335,7.28708307 9.66482857,7.59080083 C9.12417046,7.76783068 8.56022916,7.95914192 8.16739094,8.36970533 C7.77455271,8.78026873 7.62504102,9.48240812 7.99719488,9.91171011 C6.9714427,9.99594444 5.93883907,9.89806115 4.94737211,9.62260917 C5.49349593,9.92534367 5.83036259,10.50121 5.82581642,11.1242908 C4.22422713,11.3847346 2.66504565,11.8588338 1.19021166,12.5338358 C1.46547162,12.9903056 1.78697539,13.4174031 2.14967151,13.8084179 L0.122096881,15.1074165 C0.807107989,15.2795299 1.16127551,16.2110141 0.76291721,16.7927758 C1.47319563,16.4776684 1.91339212,15.6625092 2.67291726,15.4972415 C3.17050774,15.3889687 3.67681768,15.5919608 4.1488574,15.7826502 C4.62089712,15.9733396 5.13971582,16.1582451 5.62837779,16.0151291 C6.11703976,15.8720131 6.47747141,15.2401412 6.16696144,14.8375612 C8.2556276,14.2298454 10.4142198,13.8935328 12.5892324,13.8369595 C12.7570327,13.8159597 12.9272043,13.8481648 13.0756233,13.9290094 C13.3587578,14.124898 13.2842633,14.5480009 13.2690122,14.8913107 C13.2537611,15.2346205 13.5220768,15.685818 13.829763,15.5310741 C13.4677689,15.844104 13.7772265,16.4334038 14.1245223,16.7625771 C14.4718181,17.0917504 14.890409,17.5459582 14.6777866,17.9741472 C14.6222935,18.0859021 14.5281722,18.175318 14.4747783,18.2880851 C14.3171743,18.6209454 14.5674098,19.009002 14.8625659,19.230049 C15.157722,19.4510961 15.5192574,19.6055838 15.724287,19.9116779 C15.9293166,20.217772 15.8362086,20.753559 15.4695819,20.7963025 L14.4275051,19.4768658 C14.0714727,19.8450265 13.82739,20.3062933 13.7235634,20.8071725 C14.8285986,21.7080147 14.9948123,23.5415937 14.0696846,24.6254493 C13.5969204,25.1793266 12.9246147,25.5158861 12.3378384,25.9479104 C11.7510621,26.3799348 11.2081063,26.9951351 11.209582,27.7224842 C11.2121312,28.9791015 11.1091699,30.1465502 11.581362,31.3116087 C12.4520885,33.4598509 13.4573731,35.551384 14.5912687,37.5738348 C14.8890343,38.1049102 15.273867,38.6869951 15.8770795,38.7784374 C15.1147377,36.9276974 14.4284788,35.0481638 13.818303,33.1398366 C14.2157259,33.1413877 14.6749929,33.1728548 14.9079702,33.4939387 C15.1008896,33.7598156 15.0594483,34.1213039 15.1193932,34.4440025 C15.1956372,34.7566434 15.3227755,35.0547003 15.4957474,35.3263093 L19.1361499,41.7930045 C19.4379334,42.329083 19.7840971,42.9045095 20.3608643,43.1216064 C20.7296221,43.2604065 21.1562576,43.2342587 21.49567,43.4340904 C21.7617111,43.5907245 21.9408959,43.8687646 22.2121098,44.0163095 C22.978978,44.4334943 24.0453868,43.6333973 24.762048,44.1314934 C24.9669625,44.2739151 25.0973239,44.500172 25.286137,44.6632313 C25.9480332,45.2348437 27.0338208,44.8524491 27.7979094,45.2788574 C28.2903518,45.5536716 28.5455635,46.1032825 28.8082227,46.6013521 C29.466156,47.8489596 30.5307277,49.071239 31.9407404,49.1705833 C32.3836527,49.201789 32.8360709,49.1180439 33.2690148,49.2162841 C33.7019586,49.3145243 34.1281459,49.6913187 34.0586488,50.12865 C33.9395047,50.8784052 34.3109694,51.6993766 34.2112058,52.4519372 C34.0294842,53.822749 32.0796832,54.4251483 31.9122029,55.7977622 C31.8755322,56.0982967 31.9329297,56.4085053 31.8611722,56.7026782 C31.7732229,57.0632196 31.5017007,57.3567672 31.405218,57.7151304 C31.2223767,58.3942577 31.7102876,59.0701309 32.2462848,59.5270258 C32.782282,59.9839207 33.4216302,60.3779026 33.7146658,61.0174841 C34.0243981,61.6935092 33.8722592,62.4817503 33.9729901,63.2181675 C34.192897,64.8258642 35.5853592,66.0176959 37.0183929,66.7861702 C37.4550091,67.0203079 37.9238105,67.2469835 38.2064065,67.6531621 C38.5752547,68.1833101 38.5385097,68.8822024 38.6616752,69.5156643 C38.9633151,71.0670339 40.2729282,72.3452977 40.3101126,73.9251259 C40.336542,75.048015 39.7106273,76.0666946 39.3367321,77.126199 C38.6274024,79.1803326 38.850581,81.4407105 39.9480246,83.3174386 C40.2277241,83.7884206 40.5622525,84.2324721 40.7601127,84.74306 C41.1131961,85.6542034 40.9986295,86.6899609 41.3241816,87.6112447 C41.7545904,88.8292612 42.9372681,89.8353076 42.8240745,91.121795 C43.3610071,92.2337187 44.546654,92.7800631 45.738882,93.1110136 L47.8756253,93.7041575 C48.2847581,93.8177303 48.7122846,93.932204 49.1288897,93.8499694 C49.5454947,93.7677348 49.9430842,93.4227591 49.9323292,92.9993824 C48.8845002,92.7637271 47.8030653,92.5131332 46.9393034,91.8763872 C46.0755415,91.2396412 45.4838492,90.1057512 45.8115749,89.0856513 C45.9635384,88.612636 46.2868371,88.0664118 45.9794698,87.6755692 C45.8034808,87.4517874 45.4816703,87.393321 45.2831687,87.1891399 C44.9735498,86.8706794 45.079923,86.3356839 45.3025103,85.9516552 C45.5250975,85.5676264 45.8468248,85.2244403 45.9366059,84.7900045 C46.0294287,84.292272 45.8022583,83.7894377 45.3669106,83.5290025 C45.7631091,83.3798401 46.1234358,83.1492802 46.4245132,82.8522813 C46.7026432,82.5355415 46.8311162,82.0472307 46.6123289,81.6871663 C47.2620423,81.7693372 48.0290946,81.8095809 48.4555954,81.3139493 C48.7961736,80.9181672 48.7727805,80.3264595 48.6382081,79.8224876 C48.5036357,79.3185157 48.2761768,78.8290143 48.2690907,78.3075298 C49.7678627,78.3783705 51.2699295,78.3275788 52.760447,78.1556567 C52.5449121,77.431769 52.0551204,76.8200606 51.394928,76.4502392 C52.0699849,76.3363361 52.6849745,75.5303988 52.8982471,74.8816149 C53.1115196,74.2328311 53.0571284,73.5261409 52.9253072,72.8561576 C52.8746799,72.6836637 52.8677409,72.5013413 52.9051117,72.3255168 C52.9811298,72.0839292 53.2191116,71.9365062 53.4392878,71.8104152 L56.790026,69.8913828 C56.9899759,69.7914775 57.1712202,69.6580455 57.3258443,69.4969133 C57.6769028,69.0856963 57.6248995,68.4649417 57.4451461,67.9555039 C57.2653926,67.4460661 56.9774626,66.9670195 56.9082241,66.4313968 C56.7011324,64.8294982 58.4206879,63.6801432 59.0010087,62.1722237 C59.2287493,61.5804612 59.2751634,60.9372263 59.3192355,60.3049022 C59.3665707,59.6257624 59.370089,58.8369118 58.8471834,58.399259 C58.3459329,57.9797353 57.5627348,58.0733169 57.0382313,57.6830909 C56.5573534,57.3253195 56.3914462,56.630478 55.8661136,56.3415007 C55.3890321,56.0790688 54.7908649,56.2459741 54.2602602,56.1225471 C53.3260198,55.9052294 52.7380991,54.8314719 51.7839751,54.7320498 C51.2456413,54.6759542 50.6363665,54.9384038 50.1951461,54.6257538 C49.8063647,54.3502629 49.7907841,53.7965411 49.7167785,53.3266863 C49.4511511,51.8310979 48.2794037,50.658832 46.7805249,50.3891334 C46.2254713,50.3003676 45.6213021,50.3340783 45.1491083,50.0298957 C44.6709728,49.7218813 44.4517426,49.1452128 44.0761643,48.7186597 C43.470849,48.0311904 42.5174991,47.7869422 41.6244326,47.5775743 L37.991823,46.7259627 C37.3469654,46.5747838 36.5157483,46.4946215 36.1696997,47.0579254 C36.0672619,47.2724064 35.9947417,47.4998592 35.9541578,47.7339524 C35.688146,48.6027266 34.89068,49.2013068 33.9799026,49.2158336 C33.6754724,48.6979784 33.1822361,48.3173909 32.6031521,48.153515 C32.2348,48.0511444 31.8405233,48.0397585 31.489215,47.8891485 C31.1025345,47.700932 30.81064,47.3622286 30.6821864,46.9527028 C30.5537329,46.5431769 30.6000574,46.0989729 30.8102643,45.7245695 C31.2408151,44.9601263 31.1044392,44.0028132 30.4774313,43.3881935 C29.8596656,42.83512 28.9660499,42.7014873 28.1377098,42.7568268 C27.9207613,42.2847601 28.2835066,41.7521478 28.674405,41.4090906 C29.0653034,41.0660334 29.5399738,40.7287637 29.625094,40.216471 C29.7590003,39.4106326 28.7279406,38.7985786 27.9450862,39.0388554 C27.1622318,39.2791322 26.6625686,40.0374237 26.3322742,40.7848964 C26.1427632,41.2137673 25.9816497,41.6653818 25.6827185,42.0270097 C25.3837872,42.3886376 24.9023938,42.6475646 24.4470649,42.5315098 C23.8024482,42.3672138 23.5534882,41.6034793 23.4108217,40.9554163 C23.219408,40.0859246 23.0268801,39.2043704 23.0669875,38.3150713 C23.1070949,37.4257723 23.4077251,36.5126662 24.0653058,35.9106431 C25.1368645,34.9296174 26.7807048,35.0257871 28.2268602,35.1822782 C27.8851943,34.7983908 27.9696342,34.1514213 28.3351998,33.7900884 C28.726986,33.4429589 29.2653457,33.3110653 29.7738298,33.4376364 C30.2096031,33.5280954 30.6021726,33.7621632 30.8883356,34.1021555 C31.299293,34.6018062 31.4161554,35.2764304 31.7267805,35.8435733 C32.0374056,36.4107161 32.7358715,36.8944477 33.307565,36.5901786 C33.8013573,36.3273703 33.8797315,35.6445489 33.7568353,35.1000012 C33.633939,34.5554535 33.3729203,34.025938 33.417437,33.4695381 C33.5023818,32.4078624 34.6059767,31.7688092 35.5798338,31.3315697 C36.5536909,30.8943303 37.6688185,30.3063007 37.8231044,29.2524247 C37.8283796,29.0460814 37.8674147,28.8419824 37.9386683,28.6481881 C38.0466542,28.4770216 38.1967596,28.3362535 38.3747053,28.2392747 C41.216935,26.3661463 44.1064344,24.4701525 47.3549696,23.4466395 C47.5239734,23.3933881 47.5438145,23.45257 47.7160549,23.4108512 C47.9571139,23.271915 47.7973876,22.8875683 47.5662686,22.7327379 C47.3351497,22.5779074 47.0262306,22.4591709 46.9675947,22.1877432 C46.9244917,21.988219 47.0423763,21.7923039 47.0730007,21.5904989 C47.1482481,21.0946076 46.5533706,20.6367587 46.0913967,20.835011 C45.8304506,20.4903833 46.3467874,20.0899426 46.7642923,19.9753135 C48.0179915,19.6312353 49.3049376,19.4215862 50.603262,19.3499286 C50.7530829,19.326173 50.9065801,19.3522096 51.0400997,19.4240261 C51.2581624,19.5746591 51.2303016,19.920156 51.0757588,20.1351629 C50.9212159,20.3501699 50.680823,20.4851647 50.4882384,20.6670934 C50.0593237,21.0837722 49.8989174,21.7040369 50.0722623,22.2756045 C50.7500491,22.6194196 51.4869199,22.9733538 52.2376016,22.8522306 C52.9882832,22.7311073 53.6545711,21.8899947 53.3017216,21.2182377 C52.9731384,20.5926761 51.9861384,20.4515829 51.8164083,19.7659809 C51.6176835,18.9632623 52.7571625,18.2493343 52.5004858,17.4631371 C52.3880539,17.1187568 52.0438938,16.9160808 51.7798085,16.6674497 C51.1414314,16.0434859 50.9532164,15.0924306 51.306022,14.2733951 C50.4331658,14.4265247 49.5400648,14.1478164 48.9104478,13.5258129 C48.3374504,12.9491426 47.8803217,12.0394585 47.0666551,12.0652618 C46.3199824,12.0889346 45.6768502,12.9576366 44.9786713,12.6926094 C44.8069075,12.6274086 44.6258076,12.4947034 44.4593814,12.5724578 C44.3488742,12.644014 44.2774582,12.7622313 44.2656789,12.8931 C44.0882532,13.7390285 44.3934734,14.7028596 43.9311452,15.4338427 C43.4280435,16.2292952 42.2643495,16.3395767 41.6544352,17.0568772 C41.3233525,17.4462535 41.1950779,17.9709373 40.8907559,18.3814495 C40.5864338,18.7919616 39.9405204,19.0529627 39.5753091,18.6952178 C39.9449413,17.9374377 39.7406344,17.0254941 39.0827516,16.4966401 C38.7436787,16.2760341 38.3781786,16.0987443 37.9948222,15.9689284 C37.5664548,15.7881082 37.1589516,15.561623 36.779419,15.2934226 C36.5892963,15.1790565 36.4348129,15.0142171 36.3332348,14.817328 C36.2528855,14.5707923 36.2637097,14.3037148 36.3637476,14.0644494 C36.7411785,12.9853486 37.6870128,12.2035711 38.820351,12.0339484 C39.3066143,11.9679774 39.8725592,11.9912226 40.1943609,11.6217473 C40.3646331,11.426251 40.4539749,11.1306806 40.7011279,11.0512815 C40.8592178,11.0196071 41.0233404,11.0397623 41.169001,11.1087392 L42.9839904,11.7458156 C43.1864976,11.8369848 43.409395,11.8737482 43.630554,11.8524561 C43.8580228,11.8218949 44.0233397,11.6215305 44.0095991,11.3930526 C43.9516082,11.0924774 43.487822,10.9482396 43.5300233,10.645064 C43.5536607,10.5468164 43.606627,10.45803 43.6819266,10.3904316 C45.0081458,8.98275835 46.8956005,8.23947373 48.8284473,8.36371824 C49.0575289,8.73891383 48.6952283,9.18321092 48.3937691,9.50350515 C48.0923099,9.82379937 47.8500551,10.3960866 48.2146233,10.6426331 C48.3640261,10.7186716 48.5302147,10.7559951 48.6978803,10.7511656 C49.1447298,10.8114819 49.5789956,10.9428366 49.9841517,11.140231 C50.6113331,11.4124159 51.226478,11.7102246 51.8295867,12.0336569 C51.7763133,11.6371011 51.7254686,11.2193334 51.8761938,10.848542 C52.026919,10.4777506 52.4552941,10.1869148 52.8294622,10.3313169 C53.1900603,10.4704827 53.3749955,10.946632 53.7591727,10.9902552 C54.2716423,11.0484461 54.4738233,10.2934563 54.2597606,9.82549356 C54.045698,9.35753078 53.6219324,8.96569005 53.5865603,8.45254939 C53.5626961,8.10636529 53.6948007,7.67702091 53.4175051,7.46739508 C53.3188279,7.40446065 53.2068166,7.36529305 53.0903357,7.35299204 L46.1665166,6.0824096 C45.7553661,6.00695885 45.1613248,6.06478752 45.1430922,6.48128855 C45.132913,6.71377626 45.3411615,6.94377657 45.2489268,7.157531 C45.1504848,7.38567282 44.8270905,7.36481429 44.5915445,7.44550661 C44.2260675,7.57070901 44.0426718,8.00348418 44.0777729,8.38726204 C44.1420401,8.76860345 44.2901378,9.131036 44.5114431,9.44856314 C44.0610886,9.26074098 43.3791759,9.22621585 42.9288215,9.03839546 Z" id="Path" fill="#E4E7EB" fill-rule="nonzero"></path>
                    <path d="M37.0045417,3.04784468 C36.0831077,2.74061166 35.0693318,3.04650592 34.467189,3.8134593 C34.349736,3.96927174 34.2510963,4.18406391 34.3494221,4.3527815 C34.4903971,4.59466196 34.8496003,4.49912379 35.1144271,4.41259974 C35.5036742,4.27248463 35.9273425,4.26230166 36.3227781,4.38355672 C36.5714509,4.46957877 36.7939242,4.62161051 37.0436829,4.70438145 C37.2914345,4.80878732 37.5761532,4.76686706 37.783892,4.59539751 C37.9553024,4.4192601 37.9660578,4.14542754 37.9663608,3.89874396 C37.9904391,3.73157645 37.9383751,3.56238632 37.8246594,3.43826304 C37.7246851,3.37992169 37.6123432,3.34644287 37.4969558,3.34060467 C37.2385371,3.2924107 37.004909,3.15487415 36.8363598,2.95171256" id="Path" fill="#E4E7EB" fill-rule="nonzero"></path>
                    <path d="M39.8746132,2.9304535 C39.6494286,2.92299511 39.4341336,2.98745901 39.3065271,3.10055047 C39.1789207,3.21364193 39.157455,3.35900777 39.249887,3.48411848 C39.5899478,3.5405231 39.9452259,3.55461218 40.2944501,3.52554219 C40.6506269,3.49191048 40.9386179,3.33131897 41.0245521,3.11841763 C40.6133927,3.16392479 40.1891052,3.1146405 39.8344588,2.98017905" id="Path" fill="#E4E7EB" fill-rule="nonzero"></path>
                    <path d="M48.2229799,1.24169126 C47.4231955,1.41476818 46.6462956,1.68339818 45.9084273,2.04199801 C46.6225715,2.32140762 47.0734202,3.04307629 47.0191177,3.81986805 C46.9879004,3.965126 46.9915153,4.11590043 47.0296565,4.25943551 C47.114661,4.46919841 47.3609869,4.54790651 47.5775421,4.60174706 C47.966614,4.72227193 48.3728884,4.77505466 48.7792289,4.75786895 C49.1921722,4.73587554 49.5662965,4.50316832 49.773914,4.13916966 C49.8328026,3.96911913 49.9018825,3.8029051 49.9807648,3.64146373 C50.499846,2.83678667 52.0418997,3.8097607 52.5992156,3.03203129 C52.795538,2.75806444 52.7775812,2.34567065 53.0335091,2.12857798 C53.1659028,2.03399532 53.3193218,1.97440023 53.4799617,1.95515493 C54.6007266,1.72850447 55.7328266,1.56438827 56.8711941,1.46354096 C57.4105792,1.41576412 58.1136276,1.21862658 58.1181155,0.667553328 C56.0864714,0.261417778 53.9799194,0.549870469 52.1259501,1.48806771 C51.4579844,1.82860818 50.5745303,2.54494479 49.9311117,2.09347064 C49.6902019,1.92443027 49.7021303,1.46924798 49.370557,1.27916652 C49.0315623,1.08483128 48.5828302,1.16387135 48.2229799,1.24169126 Z" id="Path" fill="#E4E7EB" fill-rule="nonzero"></path>
                    <path d="M54.7945747,2.58960553 L55.7554701,2.77435606 C55.3976495,2.75849923 55.0503336,2.89759226 54.8022526,3.15610044 C54.5541716,3.41460863 54.4293538,3.76749374 54.4596871,4.12460271 C55.3595265,4.42539599 56.340556,4.13269009 57.2884366,4.17267401 C58.2363172,4.21265794 59.3391825,4.8901704 59.1773739,5.82558012 C59.1284484,6.1084164 58.9651611,6.39106379 59.0500724,6.66524076 C59.1095867,6.8574123 59.2789603,6.99376971 59.3745618,7.17075817 C59.573779,7.53956836 59.4145573,8.00605855 59.1630061,8.3413194 C58.911455,8.67658025 58.5733372,8.94408128 58.3525335,9.30037038 C57.8033652,10.1865142 58.1153763,11.3321225 58.4425137,12.3221045 C58.5371039,12.6961644 58.7117713,13.0451991 58.9544342,13.3450658 C59.4391013,13.8607099 60.2289313,13.905556 60.9362865,13.9158856 C61.4511242,13.9234063 62.0408927,13.8979531 62.3664693,13.4988117 C62.7915242,12.9777125 62.4943021,12.1646874 62.7741501,11.553107 C63.0283073,10.9976679 63.6758458,10.7593787 64.2625258,10.5903762 C65.3373303,10.2807609 66.4326622,10.0175379 67.4487774,9.54986894 C68.7105358,8.96914447 69.8897337,8.06414813 71.2765528,7.98939581 C71.665622,7.96842528 72.0643325,8.01437155 72.4391038,7.90770519 C72.8138751,7.80103884 73.1698809,7.47681769 73.1415089,7.08797443 C73.1172655,6.75573585 72.8363514,6.51176763 72.6168498,6.26131062 C72.3973481,6.0108536 72.22497,5.62572347 72.4267059,5.36073575 L76.0617402,4.68135011 C75.8040731,3.9786975 75.603344,3.05329032 76.1954355,2.59592468 C76.4090659,2.43090464 76.6950997,2.36494804 76.8769916,2.16544818 C77.1870049,1.8254248 77.031113,1.23970169 76.6732509,0.950530527 C76.3153888,0.661359364 75.831517,0.594230938 75.3731173,0.556130689 C73.7792364,0.423675307 72.1762035,0.511200589 70.5792376,0.598792333 C67.4575081,0.770014916 64.3357781,0.941236916 61.2140474,1.11245833 C60.585617,1.14692591 59.860054,1.09426872 59.2836831,1.30879949 C58.7957439,1.49042106 58.4488114,1.82380698 57.8907498,1.94093936 C56.8605431,2.1571789 55.726815,2.01085219 54.7945747,2.58960553 Z" id="Path" fill="#E4E7EB" fill-rule="nonzero"></path>
                    <path d="M72.5461197,10.3457004 C72.4495251,10.3302094 72.35075,10.3529138 72.2701999,10.4091233 C72.2169383,10.4685601 72.1852564,10.5446214 72.1803803,10.6247607 C72.1191832,10.9784458 72.1920794,11.3425063 72.3844703,11.6440334 C72.584059,11.9452704 72.9292291,12.1129941 73.2859425,12.0820731 C73.7127727,12.0269094 74.0273275,11.6578448 74.4197318,11.4777541 C75.0245235,11.2004397 77.5929658,10.7681286 75.8162551,9.79527107 C75.2039626,9.46000199 74.8083167,9.7559653 74.3257307,9.97676337 C73.7766597,10.2614527 73.1613871,10.3890069 72.5461197,10.3457004 Z" id="Path" fill="#E4E7EB" fill-rule="nonzero"></path>
                    <path d="M87.9789954,2.31761946 C87.7661871,2.4023832 87.5881593,2.55346711 87.472711,2.74727951 C87.3622369,2.95167535 87.4355855,3.20462539 87.6394726,3.32237373 C87.7189581,3.35047178 87.8032185,3.36350296 87.8877208,3.36076623 L88.7530033,3.38596863 C89.1205938,3.39667556 89.5797561,3.47300186 89.6785336,3.81836879 C89.7518804,4.07481425 89.587717,4.40434927 89.785792,4.58761033 C89.8707992,4.65179005 89.9730147,4.69065862 90.0801436,4.69954074 C90.3651777,4.77092673 90.6628313,4.78029217 90.9519933,4.72697282 C91.5815731,4.56233205 91.2507613,4.18770171 91.4490503,3.85412119 C91.7524435,3.34372033 91.6999215,3.65268992 92.2345106,3.36016785 C92.6293075,3.14413763 93.139469,2.75225446 92.8099483,2.20165218 C92.2369179,1.24416773 88.8245797,1.90628655 87.9789954,2.31761946 Z" id="Path" fill="#E4E7EB" fill-rule="nonzero"></path>
                    <path d="M105.438508,1.81434519 L104.92179,1.88819241 C103.756579,2.05472072 102.584765,2.22278216 101.462508,2.59752735 C101.948299,2.80322998 102.457969,2.93716962 102.977489,2.99565906 C103.263474,3.01067246 103.547554,3.05392041 103.826116,3.12485272 C104.321801,3.28288748 104.821269,3.69098353 105.300159,3.48193287 C105.597085,3.35231258 105.693979,3.02120402 105.939942,2.84572436 C106.109782,2.72455477 106.753956,2.52843536 106.825969,2.4061359 C107.408143,1.41742323 105.886012,1.75039025 105.438508,1.81434519 Z" id="Path" fill="#E4E7EB" fill-rule="nonzero"></path>
                    <path d="M107.389619,4.01752457 C106.732146,4.40186637 106.122143,4.86889607 105.573217,5.40819591 C105.341955,5.63547275 105.10574,5.91814321 105.126716,6.24924414 C105.154588,6.68930999 105.60298,6.94456985 105.991452,7.11651829 L107.564939,7.81298701 C107.755823,7.53171498 107.581115,7.14344705 107.383835,6.86703871 C107.186556,6.59063038 106.952121,6.27083279 107.039282,5.93821389 C107.138748,5.55863721 107.581437,5.42929004 107.952657,5.36389913 C108.557496,5.25735609 110.189093,5.26590062 109.993047,4.24684471 C109.762048,3.0460876 107.996768,3.66273191 107.389619,4.01752457 Z" id="Path" fill="#E4E7EB" fill-rule="nonzero"></path>
                    <path d="M107.069081,70.0431341 C106.912434,70.48376 106.897572,71.0028225 107.16854,71.3875302 C107.472595,71.8192146 108.081103,71.9801298 108.607561,71.8706577 C109.13182,71.7351339 109.59911,71.4432229 109.943606,71.0360445 C110.258663,70.6949105 110.517849,70.3087281 110.712076,69.8910389 C110.983153,69.2401344 111.174337,68.5604595 111.281673,67.8660755 L111.792566,65.259857 C111.906731,64.6773837 111.902311,62.8916187 110.800457,63.4734406 C110.499448,63.6323841 109.802509,64.8873248 109.487058,65.2431905 C108.918512,65.8845748 108.84329,66.5069072 108.543987,67.2839226 C108.169094,68.2571825 107.415639,69.0683196 107.069081,70.0431341 Z" id="Path" fill="#E4E7EB" fill-rule="nonzero"></path>
                    <path d="M163.992137,83.4167768 C163.653654,83.268329 163.32516,83.092582 163.009222,82.8909091 C162.692411,83.8697438 162.523982,84.9013811 162.510949,85.9428571 L164.827008,84.4699633 C165.175416,84.2484016 165.570305,83.9405322 165.562814,83.4907104 C165.569215,83.3775549 165.520101,83.2695088 165.434768,83.2090212 C165.383299,83.1858061 165.327258,83.1784159 165.272406,83.1876106 C164.928974,83.2197762 164.615841,83.4096922 164.291867,83.5417575 C163.967893,83.6738228 163.589067,83.7436291 163.291818,83.5476397" id="Path" fill="#E4E7EB" fill-rule="nonzero"></path>
                    <path d="M176.611302,84.3214121 C176.359108,84.3914975 176.112718,84.481769 175.874421,84.5913878 C175.347113,84.8652934 174.988398,85.3855453 174.513881,85.7463083 C174.059798,86.0915361 173.513178,86.2810808 172.976565,86.4653741 C172.818712,86.6078237 172.891247,86.8947164 173.062595,87.0198545 C173.246824,87.1268504 173.458119,87.1753366 173.669477,87.1591169 C174.226963,87.1716801 174.814293,87.1771606 175.302598,86.9022678 C175.577738,86.7200608 175.835202,86.5114407 176.071482,86.2792493 C176.642408,85.7929244 177.328031,85.4720495 178.006722,85.16196 C178.253745,85.0667402 178.482159,84.9273182 178.681241,84.7502393 C179.107719,84.321288 179.137707,83.6595357 178.522755,83.5135421 C178.02588,83.3955677 177.084417,84.1651552 176.611302,84.3214121 Z" id="Path" fill="#E4E7EB" fill-rule="nonzero"></path>
                    <path d="M182.369548,80.9214812 C182.428881,80.2900588 182.199583,79.665925 181.747599,79.2285714 C181.740934,79.8520727 181.722306,80.5163077 181.377297,81.031893 C181.131473,81.3992506 180.746047,81.6474106 180.476726,81.9973346 C180.207404,82.3472586 180.087856,82.9019204 180.403763,83.2089715 C180.605687,83.3651477 180.851636,83.4512488 181.105352,83.4545812 C181.734194,83.5298201 182.462062,83.5717543 182.903113,83.1099852 C183.143845,82.8579452 183.260942,82.4846521 183.554547,82.2993507 C183.663922,82.2526695 183.761592,82.1816281 183.840354,82.091466 C183.961585,81.8955851 183.76896,81.637435 183.552131,81.5668565 C183.335302,81.4962779 183.09636,81.5294571 182.878445,81.4624257 C182.660529,81.3953943 182.460605,81.1463339 182.572414,80.9447485" id="Path" fill="#E4E7EB" fill-rule="nonzero"></path>
                    <path d="M172.136243,58.6874476 C171.814211,58.7649293 171.480702,58.7843822 171.151697,58.7448743 C170.605239,58.6454879 170.179926,58.2380711 169.738748,57.9039525 C168.68999,57.1139946 167.415058,56.6733245 166.097204,56.6452829 C164.898384,56.6228877 163.688364,56.9442543 162.510949,56.7200379 C162.587874,57.1433105 162.954002,57.4607749 163.344648,57.6494691 C163.735293,57.8381632 164.166436,57.9331203 164.558956,58.1179728 C165.187586,58.4169516 165.686193,58.9301026 165.963333,59.5633162 C166.089755,59.8552419 166.169294,60.1729275 166.360797,60.4278274 C166.75221,60.948836 167.494121,61.0632418 168.148887,61.0206341 C169.002553,60.9650824 169.894154,60.7221984 170.688347,61.0368338 C171.295903,61.2775283 171.73074,61.8035865 172.23803,62.2126312 C172.745321,62.6216759 173.459835,62.9252632 174.042342,62.6301232 C172.800474,62.2323799 171.964298,61.0820134 171.97848,59.7907712 C172.549798,59.8427439 174.195343,59.8226298 174.106706,58.8622923 C174.031603,58.0484196 172.626814,58.5996036 172.136243,58.6874476 Z" id="Path" fill="#E4E7EB" fill-rule="nonzero"></path>
                    <path d="M164.518797,64.9941057 C164.62147,64.4296126 165.183052,63.9311229 165.008122,63.3847759 C164.887145,63.0069459 164.45012,62.8204069 164.054371,62.811091 C163.658622,62.8017751 163.269843,62.9199446 162.874141,62.9310719 C162.616579,62.9173658 162.358388,62.9210419 162.101318,62.9420751 C161.315825,63.0715066 160.831665,63.8968105 160.091413,64.1902606 C159.6413,64.3686926 159.135637,64.3345822 158.667511,64.4579342 C157.604869,64.7379405 156.932499,65.7445123 156.189673,66.5560639 C154.989451,67.8614785 153.425844,68.7755511 151.701392,69.1798795 C151.097198,69.3201192 150.447694,69.4098412 149.967444,69.8031959 C149.331474,70.3240926 149.174925,71.2170855 149.033433,72.028031 C148.642512,74.2676557 148.045085,76.4660799 147.248839,78.5950229 L149.772065,78.9179591 C150.251789,78.9793577 150.748872,79.0394394 151.211144,78.8970019 C151.547007,78.7699952 151.865139,78.6001261 152.157679,78.3915926 C153.281446,77.692208 154.539173,77.237115 155.849479,77.0557606 C156.510237,76.9648263 157.202998,76.9481637 157.823074,77.1943644 C158.44315,77.4405651 158.975116,77.9988902 159.027084,78.6654184 C159.57347,78.4950229 160.169065,78.6402253 160.57636,79.0431225 C160.971476,79.4466799 161.230202,79.9644213 161.316026,80.5232868 C161.382491,80.8693247 161.448991,81.2839468 161.769318,81.4291138 C162.030651,81.5475474 162.330433,81.4199894 162.616317,81.3970577 C163.58641,81.3192482 164.391401,82.4531316 165.344905,82.2578758 C166.367519,82.0484671 166.618579,80.5132566 167.616212,80.2057352 C168.18919,80.0291147 168.992893,80.2438849 169.267264,79.7096188 C169.509101,79.2387116 169.026607,78.6952909 169.076364,78.168001 C169.137631,77.5187327 169.901636,77.2431487 170.490614,76.9661184 C172.521157,76.0110374 173.484719,73.2714948 172.500767,71.2510045 C171.917778,70.0538684 170.770678,69.1115081 170.558831,67.7963798 C170.395839,66.7845439 170.793745,65.6046359 170.150181,64.8081906 C169.822796,64.4030351 169.268488,64.1793974 169.073677,63.6959573 C168.95105,63.3916494 169.000337,63.0463842 168.934346,62.7249245 C168.868355,62.4034647 168.588578,62.0672123 168.271904,62.1505341 C167.352662,62.3923995 167.059335,65.2389541 166.567177,65.9305887 C165.819048,66.9819196 164.283201,66.2894023 164.518797,64.9941057 Z" id="Path" fill="#E4E7EB" fill-rule="nonzero"></path>
                    <path d="M147.941513,59.809403 C147.628218,59.7203835 147.286119,59.6326899 146.985934,59.759904 C146.685749,59.8871182 146.510442,60.3337382 146.751369,60.5553489 C148.636194,60.4809449 150.532559,60.4070592 152.401363,60.6664428 C154.554528,60.9652932 156.685429,61.7055636 158.848042,61.4877789 C157.612699,61.1184628 156.356966,60.8231822 155.087365,60.6034701 L152.970221,60.1936365 C152.402271,60.0730911 151.828397,59.9832329 151.251031,59.9244425 C150.043212,59.8233592 149.129047,60.1468305 147.941513,59.809403 Z" id="Path" fill="#E4E7EB" fill-rule="nonzero"></path>
                    <path d="M149.668911,52.7494889 C149.512066,52.7367837 149.317812,52.7258379 149.23667,52.8566659 C149.159146,52.9816651 149.247882,53.1468154 149.206195,53.2869858 C149.149243,53.4784759 148.890741,53.5273949 148.687071,53.5013243 C148.4834,53.4752537 148.263128,53.4128167 148.082684,53.5080876 C147.894708,53.6326585 147.814021,53.8626306 147.884624,54.0725896 C147.9584,54.2755394 148.077715,54.4600604 148.233952,54.6128251 C148.500811,54.9390592 148.804875,55.2349413 149.140337,55.4948214 C149.789674,55.9598203 150.669382,56.1839042 151.078358,56.8589152 C151.136052,56.9897432 151.22473,57.1055306 151.337194,57.1968793 C151.533527,57.3175298 151.789579,57.2257434 152.000963,57.1320398 L152.741943,56.8035793 C152.875416,56.7569353 152.994571,56.6783172 153.088335,56.5750299 C153.257622,56.3521909 153.153643,56.0353552 153.011554,55.7952959 C152.869465,55.5552366 152.687584,55.3067969 152.718077,55.031563 C152.772443,54.5408279 153.422829,54.3531172 153.690259,53.9332458 C153.959819,53.5100254 153.784334,52.9647209 153.815405,52.4680936 C153.851763,51.8873246 154.227925,51.1318795 153.622714,50.6979551 C153.10836,50.3291736 152.61674,50.6699261 152.247454,51.0770683 C151.468704,51.9356452 151.100476,52.8654664 149.668911,52.7494889 Z" id="Path" fill="#E4E7EB" fill-rule="nonzero"></path>
                    <path d="M154.093636,43.7925264 C154.333095,44.2921111 154.832295,44.5902448 155.093415,45.0767741 C155.376446,45.604127 155.344199,46.2854894 155.651249,46.7966401 C155.966271,47.3210687 156.600233,47.5994943 156.776904,48.1959769 C156.969784,48.8471882 156.532157,49.6386916 156.881,50.2076923 C157.012535,50.3957364 157.210394,50.5150827 157.426472,50.5367148 C157.64255,50.5583469 157.857054,50.4802832 158.017833,50.3215033 C158.323681,49.958641 158.308413,49.396293 157.983414,49.0537659 C157.776871,48.8485702 157.480292,48.7598983 157.307842,48.5202198 C157.218031,48.3819016 157.158204,48.2231759 157.132867,48.0560039 C157.038862,47.5738007 157.05392,47.073918 157.176743,46.5994698 C157.222888,46.4790581 157.234606,46.3462737 157.210362,46.2184873 C157.132727,45.9725955 156.827163,45.9551499 156.612706,45.8410782 C156.125619,45.5819996 156.13744,44.8329698 156.22254,44.2496813 C156.165882,44.6380092 154.896407,43.9775345 154.763474,43.7575695 C154.499396,43.3205986 154.643122,42.4776809 154.590843,41.9948052 C154.020725,42.2941531 153.800862,43.1816957 154.093636,43.7925264 Z" id="Path" fill="#E4E7EB" fill-rule="nonzero"></path>
                    <path d="M140.569134,51.5863441 C140.31401,51.3175011 139.929736,51.0362543 139.587698,51.1983911 C139.326744,51.3220885 139.254961,51.6619574 139.357239,51.9195832 C139.481837,52.1698251 139.673679,52.3851124 139.913787,52.5441493 C140.626579,53.0975145 141.394133,53.5969496 142.015973,54.2402047 C143.128794,55.391363 143.718299,56.9446617 144.928543,58.0051465 C145.17181,58.251011 145.493928,58.4151108 145.845642,58.4723535 C146.198236,58.5032303 146.594183,58.2907783 146.634713,57.9596331 C146.668097,57.6868544 146.466081,57.4427009 146.268659,57.2405606 C145.798537,56.759204 145.283863,56.3161325 144.840009,55.8131664 C144.63502,55.6199687 144.506197,55.3667138 144.474834,55.0952601 C144.472582,54.8244432 144.734938,54.5409911 145.013682,54.6080573 C144.674674,54.5264916 144.423257,53.9948507 143.925697,53.8949133 C143.50988,53.8113977 143.409287,54.0537129 142.914424,53.8539272 C141.970594,53.4728784 141.230097,52.2828519 140.569134,51.5863441 Z" id="Path" fill="#E4E7EB" fill-rule="nonzero"></path>
                    <path d="M162.030069,24.6221594 C161.758551,24.5425722 161.491607,24.4485272 161.230412,24.3404384 C160.527623,24.1323844 159.597758,24.6418451 159.691436,25.3595906 C159.753678,25.8364749 160.203693,26.1579925 160.452214,26.5716465 C160.820771,27.1850821 160.722516,27.9631352 160.528842,28.6501151 C160.481293,28.8628248 160.390864,29.0639344 160.262933,29.2414882 C160.084073,29.4289418 159.870254,29.5806373 159.633176,29.6882736 C158.684093,30.2131574 157.847118,30.9144285 157.168522,31.7533181 C157.094745,31.8307934 157.043351,31.9263408 157.019681,32.0300316 C156.986164,32.2723667 157.233154,32.4488967 157.372794,32.6510153 C157.682983,33.0999954 157.458784,33.7041512 157.489449,34.2466047 C157.479866,34.4025524 157.55278,34.552288 157.682184,34.6424055 C157.869143,34.736068 158.090684,34.5769714 158.192019,34.3959061 C158.528307,33.7950316 158.274979,32.8305273 158.905842,32.5408132 C159.025176,32.4860103 159.169848,32.4629064 159.24946,32.359519 C159.375764,32.1955087 159.253907,31.9526636 159.317915,31.7566264 C159.414017,31.4622903 159.822201,31.449077 160.135455,31.4621318 C160.675068,31.4843865 161.214477,31.4135623 161.72939,31.2528488 C161.93138,31.2054807 162.114839,31.1007063 162.257038,30.951507 C162.445625,30.7193868 162.428911,30.3893408 162.391229,30.0942299 C162.202483,28.6229694 161.729944,27.2009367 160.999117,25.9048857 C161.553282,25.9747019 162.156191,26.0351627 162.634394,25.7503335 C162.902168,25.5908387 163.223275,25.1138769 163.090468,24.7892366 C162.880445,24.2758567 162.501041,24.7079801 162.030069,24.6221594 Z" id="Path" fill="#E4E7EB" fill-rule="nonzero"></path>
                    <path d="M93.6096142,32.3226935 C93.6738632,32.6654197 93.7370184,33.0262943 93.6240941,33.3563382 C93.5111698,33.6863821 93.1559345,33.9621513 92.8204926,33.861024 C92.5601619,33.7825414 92.4097837,33.5221867 92.224927,33.3236924 C91.1969176,32.219841 88.8775679,32.8589336 88.2425078,31.4932857 C87.9833257,30.9359272 88.1594637,30.2681885 87.9826797,29.6798268 C87.7533034,28.9804132 87.0774657,28.5237548 86.339237,28.5693648 C86.011872,28.6163913 85.6932289,28.7109987 85.3935142,28.8501566 C83.3856464,29.649979 81.2777081,30.1743731 79.1276929,30.4089118 C78.7190945,30.4336731 78.3149236,30.5068182 77.9237438,30.6267975 C77.0409301,30.9451326 76.4377307,31.7591893 76.0084586,32.5898858 C75.5791866,33.4205823 75.262276,34.3198994 74.6867515,35.0579205 C74.0818972,35.8335572 73.2343178,36.3767001 72.4436883,36.9641869 C72.1391183,37.1594234 71.8855092,37.4238007 71.7037287,37.735565 C71.5323254,38.0855671 71.5419946,38.4926729 71.5552993,38.8817641 L71.7168865,43.6074615 C71.737671,44.2153027 71.7637688,44.8448713 72.0372856,45.3888292 C72.3788357,46.0680865 73.0535568,46.5129698 73.5216349,47.1130139 C73.9993164,47.7296634 74.2481466,48.4915186 74.2260203,49.2696638 C74.2160573,49.5825063 74.1848036,49.95253 74.4297641,50.1490086 C74.5787794,50.2451059 74.7531475,50.2949844 74.9307226,50.2923092 L81.3576886,50.8155008 C82.4882381,50.9075336 83.7411492,51.0588549 84.4792645,51.9155656 C84.82762,52.3198934 85.107459,52.9013401 85.641034,52.9447246 C85.869904,52.9633308 86.0926004,52.8698844 86.3215163,52.8518521 C86.8990586,52.8063568 87.4064224,53.2423516 87.7266198,53.7225848 C88.2112419,54.4545434 88.4312224,55.328654 88.3504391,56.2013811 C88.2979372,56.7491962 88.1271728,57.2817693 88.0903579,57.8308536 C87.9502738,59.9201152 89.7309474,61.73528 89.7654631,63.8289022 C89.7857662,65.0603916 89.1980043,66.2110199 88.6249683,67.3028616 C89.5498218,68.696418 88.7925043,70.5521066 89.1607097,72.1812446 C89.5100351,73.7268511 90.8056976,74.9368453 91.1285552,76.4881345 C91.2763563,77.1983124 91.2849069,78.0722596 91.914521,78.4380371 C92.1907914,78.5719714 92.4970568,78.6329649 92.8038746,78.6151542 C94.6545516,78.6369584 96.4841286,78.2226692 98.1429291,77.4061793 C98.9214611,77.0219153 99.7283069,76.4482691 99.8642724,75.5944561 C99.9739206,74.9059107 99.6228624,74.1357385 99.9801331,73.5359796 C100.401203,72.8291043 101.479893,72.8851412 102.099431,72.3416656 C103.104514,71.45999 102.320766,69.7785067 102.727995,68.5085973 C103.094045,67.3671039 104.354107,66.7606712 104.97871,65.7361667 C105.224513,65.2955639 105.400905,64.8200624 105.501729,64.326254 C105.787867,63.1460337 105.965976,61.9424678 106.033874,60.7302972 C106.050519,59.9938066 106.105114,59.2586491 106.197444,58.527719 C106.870864,54.3664113 111.00696,51.579927 112.349824,47.5822971 C112.478069,47.2005206 112.538295,46.6919988 112.196824,46.4759722 C111.994283,46.3798599 111.764671,46.3559571 111.546511,46.4082741 L108.583825,46.7797871 C108.215835,46.8259321 107.825773,46.8690613 107.487828,46.7170359 C107.149883,46.5650105 106.907681,46.1397843 107.086935,45.8168245 C107.590131,44.9102438 106.555042,43.7646204 106.09519,42.8355464 C104.856743,40.3338608 103.381961,37.9549594 101.690754,35.7309547 C101.582493,35.616546 101.514699,35.4701412 101.497653,35.3139463 L102.338498,35.3417931 C102.05466,34.3287615 101.586248,33.2202062 100.596757,32.8496349 C100.039184,32.6408192 99.4217133,32.713024 98.8268115,32.7453564 C97.1228561,32.8379438 95.2960825,32.5820589 93.6096142,32.3226935 Z" id="Path" fill="#E4E7EB" fill-rule="nonzero"></path>
                    <path d="M98.2768509,9.82816989 C98.7232111,10.3016595 99.2233961,10.8036742 99.8692276,10.8862017 C101.009934,11.0319811 101.830094,9.85368442 102.352275,8.83020767 C102.392468,9.3727505 102.857704,9.78475593 103.401749,9.75960667 C103.683321,9.71228418 103.952061,9.6073342 104.191101,9.45134384 C106.451194,8.21759959 108.982675,7.56391399 111.558193,7.54899451 C111.506958,7.14535175 111.769198,6.76824999 112.165754,6.67531652 C112.689406,6.57161595 113.161105,7.0238511 113.413712,7.49362572 C113.666318,7.96340033 113.823829,8.50790796 114.225165,8.85953982 C114.626501,9.21117168 115.403518,9.19585341 115.562042,8.68665304 C115.714232,8.19779739 115.204388,7.78090666 114.780808,7.49269476 C114.357229,7.20448286 113.91076,6.67104581 114.196008,6.24571809 C116.360003,5.76723037 118.537421,5.2869303 120.751754,5.19182425 C121.128749,5.20493353 121.504404,5.14029235 121.855278,5.00193427 C122.19297,4.83640308 122.461376,4.46065312 122.370568,4.09602152 C121.382187,4.32810604 120.351478,3.93976227 119.76275,3.1134643 C122.835286,2.86019506 126.103256,2.64431799 128.826229,4.08847654 C129.152987,4.7891704 127.487609,5.37214274 127.933189,6.0041318 C128.075299,6.20569588 128.360061,6.22933434 128.606823,6.23390947 C130.499048,6.26900257 132.402196,6.30341427 134.273062,6.0180501 C134.956756,5.91376724 135.647328,5.76655074 136.333747,5.85111718 C137.477063,5.99196567 138.454938,6.75397688 139.579746,7.00242144 C140.037554,7.1035433 140.550877,7.10696801 140.936793,6.84098575 C141.322709,6.57500349 141.488593,5.96935904 141.172346,5.62358724 C142.231395,4.58677271 143.989091,4.84374099 145.386236,5.34011684 C146.783382,5.83649269 148.106973,6.63698101 149.585717,6.7476248 C150.64611,6.82696657 151.721237,6.54205195 152.769034,6.72314742 C153.427472,6.83695044 154.040269,7.12954809 154.683799,7.30931261 C155.900928,7.64930577 157.188445,7.57753553 158.452162,7.59389804 C161.676522,7.63728925 164.865653,8.2702903 167.861669,9.46156311 C168.251409,9.58831355 168.608507,9.79906032 168.907701,10.0788958 C169.186471,10.3770934 169.328643,10.8404734 169.14128,11.2030183 L166.045405,10.751169 C166.337097,11.3247522 167.091721,11.4224971 167.70455,11.620371 C168.317379,11.8182449 168.952789,12.4942631 168.584496,13.0220419 C167.920491,12.8108532 167.318767,13.4739921 166.983347,14.0841338 C166.647926,14.6942755 166.239177,15.4249918 165.543321,15.4621592 C164.920201,15.4954435 164.166594,14.9654506 163.760433,15.4386605 C164.321561,16.1457576 164.802064,16.9131092 165.193049,17.7265118 C165.594318,18.5615605 165.880122,19.61375 165.337765,20.3650587 C165.252438,20.4991801 165.123015,20.5994325 164.971731,20.6485929 C164.528791,20.7606012 164.240995,20.2193289 163.923337,19.891263 C163.523059,19.47785 162.917716,19.3607551 162.37565,19.1668705 C161.833584,18.9729859 161.262565,18.5915811 161.220152,18.0180104 C161.193764,17.6611485 161.382387,17.3294136 161.521321,16.9995902 C161.75484,16.4436544 161.856968,15.8414434 161.819778,15.2396999 C161.789364,14.7555946 161.65347,14.2520189 161.305415,13.9137744 C160.957359,13.5755299 160.35644,13.4682276 159.982791,13.7780249 C159.808442,13.922576 159.668717,14.1537961 159.442305,14.162442 C159.042255,14.1777301 158.735099,13.4810397 158.413244,13.7188597 C158.451008,13.9722601 158.398408,14.2308576 158.26464,14.449445 C157.304195,15.2838318 155.828724,14.9308389 154.590526,15.2255887 C154.001744,15.3939052 153.438031,15.6398139 152.914258,15.9568271 C152.718323,16.0405163 152.551597,16.1803078 152.435123,16.3585588 C152.280564,16.6585811 152.45097,17.04283 152.7234,17.2423163 C153.012308,17.4193113 153.336963,17.530002 153.673916,17.5663929 C155.183429,17.8519659 156.714961,18.2940438 157.906723,19.2625446 C159.098485,20.2310455 159.880014,21.8320328 159.502886,23.3197303 L156.526056,20.4784388 C156.63912,21.6714354 156.703283,22.8677181 156.718544,24.0672869 C156.737793,24.3015069 156.705589,24.5371001 156.624183,24.7575916 C156.411965,25.2258034 155.836791,25.3833613 155.332772,25.4867203 C155.049222,25.5405317 154.802187,25.7127669 154.653844,25.9600749 C154.505501,26.2073829 154.469978,26.5062098 154.556216,26.781342 C154.735292,27.364394 155.181796,27.8189689 155.590636,28.2719191 C155.999476,28.7248693 156.401807,29.239666 156.455329,29.8471918 C156.508851,30.4547176 156.049994,31.139495 155.440914,31.0972552 C154.979185,31.065231 154.636626,30.6523473 154.439683,30.233961 C154.24274,29.8155748 154.125554,29.3495027 153.829641,28.9940054 C152.933989,27.9179988 150.922239,28.3790054 150.119875,27.2318975 C149.704034,27.7030838 149.562056,28.3557394 149.744638,28.9568186 C150.117912,28.7234003 150.628918,28.9402756 150.909369,29.2794369 C151.18982,29.6185982 151.322124,30.0534266 151.542369,30.4343588 C151.839565,30.9483838 152.312544,31.4040738 152.354028,31.9962247 C152.343029,32.2201369 152.346808,32.4445296 152.365339,32.6679457 C152.439028,33.0267349 152.742623,33.284358 152.953116,33.5842547 C153.442906,34.2820672 153.418705,35.2406939 153.103014,36.0324461 C152.787322,36.8241983 152.22016,37.4857832 151.658395,38.1272057 C150.6772,39.2475372 149.675978,40.3613006 148.512737,41.2916766 C148.180814,41.5571579 147.826577,41.8182005 147.61985,42.1893576 C147.413123,42.5605147 147.402523,43.0814883 147.720196,43.3638225 C147.492893,43.3751939 147.085251,43.4868678 146.857948,43.4982392 C146.778033,42.5874053 146.760665,41.6721736 146.805964,40.7589687 C145.908952,40.3287331 144.943128,41.4809241 145.05888,42.4681378 C145.174632,43.4553516 145.889455,44.2475711 146.398386,45.1016848 C146.770557,45.726274 147.047148,46.454562 146.922896,47.1707441 C146.798645,47.8869261 146.158642,48.5476102 145.433734,48.4844451 C144.280683,48.3839763 143.798378,46.7304875 142.656562,46.5412523 C142.555857,46.5176352 142.45015,46.5281183 142.35606,46.5710535 C142.186564,46.663972 142.157102,46.8905161 142.147586,47.0834096 C142.100871,48.0301427 142.060426,49.0145088 142.430406,49.8873762 C142.971662,51.1643292 144.369932,52.2368191 144.076616,53.5922078 C142.496523,52.8585305 141.674988,51.0885166 141.301983,49.3883278 C140.928979,47.688139 140.866812,45.9032652 140.198176,44.2959807 C139.690457,44.9460172 138.623287,44.408651 138.159396,43.7267143 C137.719604,43.0802016 137.448829,42.3323264 137.022141,41.6771095 C136.595454,41.0218926 135.941805,40.4351876 135.160122,40.39916 C134.340567,40.3613802 133.629789,40.9231689 133.004717,41.4539813 C132.49072,41.890468 131.963001,42.3441315 131.662553,42.9475034 C131.225341,43.8255176 131.339709,44.8606012 131.31864,45.841008 C131.295858,46.9009177 131.070984,48.0192102 130.347794,48.795145 C129.624604,49.5710799 128.289755,49.8413452 127.492077,49.1420319 C127.075634,48.7769401 126.874,48.2314714 126.694398,47.7078837 C125.828661,45.1839853 125.10765,42.6128456 124.534875,40.006975 C124.400841,40.60174 123.878,41.3683334 123.378525,41.017983 C123.266449,40.9238004 123.17565,40.8069402 123.112123,40.6751191 C122.180438,39.0977756 120.455057,38.1516654 118.711775,37.5843848 C116.968493,37.0171042 115.134339,36.7524918 113.410389,36.1290371 C112.4443,35.779519 111.521565,35.3203939 110.660297,34.7606752 C110.213012,35.4171053 110.162257,36.2657204 110.528118,36.9706768 C110.910529,37.6470455 111.775889,38.0383845 112.516646,37.801968 C112.899442,37.6797953 113.222711,37.4143493 113.602536,37.2832457 C113.98236,37.1521422 114.492161,37.2165214 114.658249,37.5820574 C114.817227,37.9319353 114.576932,38.3551905 114.696133,38.7205053 C114.877682,39.2768994 115.717772,39.3197658 116.011533,39.8260813 C116.230103,40.202794 116.050262,40.7030388 115.738185,41.0070186 C115.426108,41.3109983 115.009731,41.4777206 114.62878,41.6893252 C113.392712,42.3759096 112.513719,43.5479621 111.43347,44.4598429 C110.35322,45.3717237 108.829112,46.0374873 107.541704,45.4525663 C107.848585,43.9003586 105.997551,42.7607709 105.657024,41.2155807 C105.54494,40.7069945 105.603043,40.1667381 105.443025,39.6711127 C105.211348,38.9535254 104.574001,38.4601406 104.051149,37.9163392 C102.769959,36.5693486 102.087991,34.7624005 102.160095,32.9057851 C102.188348,32.2671803 102.305803,31.6181739 102.160157,30.9957209 C102.01451,30.373268 101.49859,29.7708022 100.859277,29.7990123 C99.3990964,29.8634357 97.5595826,29.9719291 96.7934897,28.728563 C96.5200693,28.2848002 96.4010836,27.6348593 96.7963991,27.2948733 C97.0752697,27.0550356 97.4869144,27.0776281 97.8531382,27.113615 L101.143135,27.4369005 C101.912617,27.5125131 102.74441,27.5749136 103.404719,27.1730828 C104.065028,26.7712519 104.351146,25.7046168 103.739725,25.2318635 C103.292982,24.886435 102.492581,24.9051656 102.362718,24.3559519 C102.254564,23.8985434 102.761411,23.3795574 102.487666,22.997296 C102.291384,22.723206 101.8501,22.7992469 101.582697,23.0047189 C101.315293,23.2101909 101.121279,23.5106769 100.822011,23.6662489 C100.297033,23.9391638 99.6697599,23.6794274 99.1049455,23.5029036 C98.5401311,23.3263797 97.7829364,23.3113888 97.5089791,23.8353978 C97.2025937,24.4214373 97.7807411,25.1893528 97.4766732,25.7765888 C97.074662,26.5529891 95.7132419,26.1110051 95.1486508,26.7788323 C94.5007888,27.5451585 95.5895024,28.6878594 95.3710159,29.6668503 C94.8035957,29.9475584 94.1302453,29.9097697 93.5978732,29.5673408 C93.0734275,29.2110254 92.7874805,28.5956153 92.8535898,27.9655076 C92.9076715,27.5251093 93.1375279,27.0755573 92.9835166,26.6593816 C92.8589957,26.3228964 92.5207775,26.1225783 92.2064418,25.9490632 L89.0093051,24.1843058 C88.7124734,24.7343372 89.0877353,25.4162279 89.5570567,25.8293541 C90.0263781,26.2424803 90.6142228,26.5536315 90.9225289,27.0973286 C91.3273703,27.8792715 91.0526033,28.8408917 90.2955586,29.2915782 C90.2030702,29.3553478 90.0872873,29.3755224 89.9786467,29.3467983 C89.8755917,29.286308 89.8014474,29.1867144 89.773114,29.0707189 C89.2090084,27.6287338 88.3620667,26.206996 87.0080105,25.4537262 C85.6539542,24.7004564 83.7083146,24.8553312 82.8203834,26.1242526 C82.6094803,26.4256465 82.4679321,26.7691953 82.2842072,27.0878456 C81.3081042,28.7807903 79.2155035,29.5824626 77.2604041,29.5300973 C77.0691445,29.5406635 76.8788832,29.4960044 76.7123513,29.4014557 C76.3963785,29.1834689 76.4106081,28.7209083 76.4589791,28.3403779 L76.6642035,26.7254936 C76.7054145,26.4012134 76.7651306,26.0427781 77.0220748,25.8403503 C77.3842677,25.5550039 77.9067512,25.7350781 78.3680002,25.7284428 C79.083835,25.6949684 79.7023903,25.2181208 79.9162281,24.5349058 C80.1061246,23.8485005 79.9001298,23.1134878 79.3810529,22.6253407 C79.1696467,22.4269978 78.8858929,22.1778506 78.9975538,21.9104683 C79.0877472,21.7607491 79.2396464,21.6585747 79.4124463,21.6313925 C80.2409697,21.3910576 81.1164184,21.3280641 81.9311286,21.0444875 C82.7458388,20.7609109 83.5359312,20.1807226 83.7288715,19.3407519 C83.7879993,19.0833394 83.8149188,18.7715174 84.0463928,18.6438951 C84.1625385,18.5949112 84.2872667,18.5694559 84.4133395,18.5690064 C85.3288759,18.4388994 85.9934714,17.6320769 85.9449565,16.7096155 C86.3354048,16.4370918 86.8824335,16.6375603 87.2601636,16.9274199 C87.6378937,17.2172796 87.9713775,17.6002347 88.4309911,17.7251844 C89.2875201,17.958047 90.1152604,17.2005153 91.0029382,17.1970039 C91.3762334,17.1955278 91.7626685,17.3273712 92.1138582,17.2009525 C92.469878,17.072794 92.6824856,16.7187852 92.9557289,16.4572506 C93.2289722,16.1957161 93.7084143,16.0361972 93.9607234,16.3179366 L93.7458691,14.7282341 C94.6212732,14.9491391 95.5495365,14.7815007 96.292091,14.2684027 L93.5152739,13.3311985 C93.4185871,13.3070861 93.3293794,13.2594411 93.2556099,13.1925146 C93.053729,12.9753685 93.2542491,12.6369859 93.4184113,12.3901467 C93.8111293,11.7996417 93.8770539,10.8269374 93.2312401,10.5329522 C92.7904275,10.3322872 92.2844468,10.5731567 91.8613436,10.8088103 L89.8346162,11.9376283 C89.77021,12.3224471 90.2413175,12.5405401 90.53325,12.799749 C90.8947772,13.1207529 91.0215948,13.6307171 90.8524658,14.0833927 C90.6833369,14.5360684 90.2530489,14.8383462 89.7693773,14.8442636 C90.039723,15.1953489 90.1356336,15.6501569 90.0300441,16.080345 L88.666411,16.1783094 C88.513369,16.209066 88.354361,16.1780654 88.2241295,16.092081 C88.0782846,15.9626942 88.0980636,15.7359625 88.0642605,15.5440655 C87.9826747,15.0809031 87.5286531,14.7562831 87.0652903,14.6730476 C86.6019275,14.5898121 86.1278966,14.696502 85.6690644,14.8018486 C85.4742347,14.8718813 85.2602811,14.8669492 85.068893,14.7880134 C84.9591475,14.7167987 84.8757551,14.6116582 84.8314532,14.4886513 C84.6302952,14.0014487 84.8183204,13.4287842 85.1413965,13.0121394 C85.4644726,12.5954947 85.9067434,12.290915 86.3039495,11.9440565 C87.2538282,11.1115385 87.9517181,10.030278 88.3187826,8.82241845 C89.0694659,8.50824247 89.8466345,8.08137141 90.5973089,7.76718835 C91.7546524,7.18187505 93.0525186,6.93068924 94.3449596,7.04187729 L96.8872002,7.0903825 C97.639875,7.10474328 98.41291,7.12314468 99.1088914,7.40977431 C99.8048728,7.69640394 100.416414,8.31634367 100.464464,9.06679229 C100.493927,9.23949813 100.432339,9.41519372 100.301456,9.53181656 C100.203167,9.5853966 100.091841,9.61046217 99.9800451,9.60418325 C99.2780855,9.62882523 98.9787945,9.80353676 98.2768509,9.82816989 Z" id="Path" fill="#E4E7EB" fill-rule="nonzero"></path>
                    <path d="M78.4746457,17.81188 C78.6695413,17.6198587 78.7449106,17.3305271 78.669897,17.0623382 C78.1953878,16.8717516 77.6581074,16.9773474 77.2830443,17.3349069 C77.1380798,17.4875224 77.0131479,17.6594257 76.9114995,17.8461441 C76.5899565,18.3921549 76.3055548,19.044352 76.4919003,19.6546931 C76.5225809,19.7891549 76.6040141,19.9050817 76.7178104,19.9762945 C76.8013255,20.0111836 76.8913662,20.0258632 76.9811311,20.0192245 C77.3353521,20.0187453 77.6892243,19.9960758 78.0408282,19.9513388 C78.2567529,19.9238608 78.5075454,19.860395 78.5909928,19.6513044 C78.7006854,19.376453 78.4351868,19.0654008 78.512585,18.7788889 C78.5635051,18.6507652 78.64067,18.5357477 78.7386963,18.4418604 C78.8372948,18.3460102 78.8867112,18.2073904 78.8720451,18.0677986 C78.8408098,17.9333639 78.6430362,17.8570981 78.5718424,17.9738975" id="Path" fill="#E4E7EB" fill-rule="nonzero"></path>
                    <path d="M80.2719501,15.2136084 C79.9418907,15.1406338 79.6016689,15.120061 79.2647217,15.1527026 C79.1902013,15.1505655 79.1163422,15.1667281 79.0501002,15.1996682 C78.9859163,15.2452467 78.9393701,15.3101524 78.9178417,15.3840942 C78.7702694,15.8402049 79.0114065,16.3289514 79.4718229,16.5069263 C79.5928318,16.5337156 79.7087435,16.5785685 79.8153542,16.6398583 C80.1002282,16.8526883 79.9186231,17.2877135 79.9725508,17.6310003 C80.0331061,18.0164813 80.4206086,18.3400507 80.3495636,18.7238678 C80.2935931,19.0262504 79.9581955,19.2656861 80.0121912,19.5684081 C80.0687485,19.8854629 80.4865679,19.9807343 80.8196114,20.0061239 C81.0126265,20.0386693 81.2112982,20.016744 81.3916616,19.9429926 C81.5724439,19.8239597 81.7010215,19.644657 81.7525731,19.4396979 C81.888921,19.0489005 81.946215,18.6365598 81.9213541,18.224993 C81.9198865,18.0378048 81.8710618,17.8537815 81.7791068,17.6888538 C81.6788163,17.5581952 81.5676451,17.4356158 81.4466948,17.3223305 C80.8086137,16.6076304 81.4804732,15.5415666 80.2719501,15.2136084 Z" id="Path" fill="#E4E7EB" fill-rule="nonzero"></path>
                    <g transform="translate(23.930989, 17.579221)">
                        <path d="M139.190445,54.9350649 C139.190445,54.9350649 90.8996028,27.2301585 70.1097384,32.4795095 C70.1097384,32.4795095 26.0498173,37.2185064 20.9435341,47.6442992 C20.9435341,47.6442992 6.93773106,3.8997116 1.83145322,2.44155844" id="Path" stroke="#1665D8" stroke-width="1.22304" opacity="0.8"></path>
                        <path d="M20.9435379,47.6845795 C29.040644,26.2231474 101.987535,2.44155844 101.987535,2.44155844 C91.6290783,5.05173213 70.1097428,32.6035731 70.1097428,32.6035731 C70.1097428,32.6035731 24.5908795,-0.313626358 1.83145322,2.73157715 C1.83145322,2.73157715 102.060481,5.9942947 139.190445,54.9350649" id="Path" stroke="#1665D8" stroke-width="1.22304" opacity="0.8"></path>
                        <ellipse fill="#1665D8" fill-rule="nonzero" cx="2.13669542" cy="2.13636364" rx="2.13669542" ry="2.13636364"></ellipse>
                        <ellipse fill="#1665D8" fill-rule="nonzero" cx="21.061712" cy="47.3051948" rx="2.13669542" ry="2.13636364"></ellipse>
                        <ellipse fill="#1665D8" fill-rule="nonzero" cx="102.256138" cy="2.13636364" rx="2.13669542" ry="2.13636364"></ellipse>
                        <ellipse fill="#1665D8" fill-rule="nonzero" cx="139.495687" cy="54.6298701" rx="2.13669542" ry="2.13636364"></ellipse>
                        <ellipse fill="#1665D8" fill-rule="nonzero" cx="69.9004645" cy="32.6558442" rx="2.13669542" ry="2.13636364"></ellipse>
                    </g>
                </g>
            </g>
        </g>
    </g>
</svg>