<svg width="60" height="60" viewBox="0 0 60 60" fill="none" xmlns="http://www.w3.org/2000/svg">
  <path
    d="M49.976 47.3193C48.6908 48.0533 34.492 56.2757 34.492 56.2757C31.5512 57.8805 28.5587 57.9353 25.6282 56.276C20.1934 53.1985 14.7728 50.0942 9.39467 46.9195C6.51358 45.219 5.0201 42.6105 5.01263 39.2353C4.99893 33.0498 4.99155 26.864 5.01623 20.6786C5.02973 17.3023 6.5673 14.719 9.45032 13.0233C14.7881 9.88395 20.1617 6.80412 25.5485 3.74895C28.5295 2.05832 31.5683 2.09354 34.5475 3.797C39.7873 6.79312 45.0177 9.80602 50.242 12.8289C53.4192 14.6673 55.0213 17.3939 54.9928 21.1061C54.9483 26.9767 54.9305 32.8485 54.999 38.7188C55.0447 42.634 53.334 45.4123 49.976 47.3193ZM19.1745 11.7732C16.7203 13.1913 14.2807 14.6356 11.8073 16.0195C9.7877 17.1495 8.77485 18.7768 8.7956 21.1279C8.84282 26.4742 8.80763 31.8212 8.8142 37.168C8.81468 37.55 8.8825 37.9317 8.91903 38.3137C9.0338 38.3782 9.14857 38.443 9.26335 38.5078C9.6212 38.0635 9.94173 37.5823 10.3426 37.1808C15.6826 31.8333 21.0335 26.4965 26.3823 21.1577C29.374 18.1718 30.6105 18.1631 33.5573 21.1042C38.9433 26.48 44.3285 31.8567 49.7178 37.2295C50.1073 37.618 50.5268 37.9767 51.0108 38.4215C51.0983 38.1147 51.1718 37.977 51.1718 37.8393C51.175 32.0733 51.1783 26.3072 51.1653 20.5412C51.1608 18.5691 50.1653 17.1654 48.5038 16.2047C43.2788 13.1834 38.0427 10.181 32.817 7.1611C30.917 6.06315 29.0505 6.06525 27.1525 7.17995C24.5728 8.69505 21.9716 10.1737 19.1745 11.7732ZM22.6004 30.2947C19.0408 33.8495 15.4769 37.3998 11.9239 40.9608C10.4781 42.41 10.5774 43.253 12.3098 44.2555C16.4828 46.6702 20.6599 49.0783 24.8468 51.469C25.2935 51.7243 25.8163 51.847 26.3593 52.0525C26.4473 51.6602 26.5227 51.5068 26.5055 51.3643C26.462 51.0025 26.38 50.6447 26.308 50.2865C25.6175 46.8575 25.447 43.3898 26.418 40.0255C27.2845 37.0243 28.5385 34.1348 29.607 31.1908C30.363 29.1083 30.971 26.995 30.4052 24.7543C30.058 23.3782 29.6718 23.2677 28.6623 24.2588C26.6803 26.2043 24.7246 28.1765 22.6004 30.2947Z"
    fill="#212636" />
</svg>
  