<?xml version="1.0" encoding="UTF-8" ?>
<svg class="advanon-logo" width="189px" height="40px" viewBox="0 0 189 40" version="1.1" xmlns="http://www.w3.org/2000/svg"><g id="Page-1-Copy-4" stroke="none" stroke-width="1" fill="none" fill-rule="evenodd"><g id="7-Germany-Continue-with-bexio" transform="translate(-588.000000, -80.000000)"><g id="Advanon" transform="translate(588.000000, 80.000000)"><g id="Group" transform="translate(59.166667, 7.500000)" fill="#1A4063"><path d="M0.298982188,23.9313839 L9.34629,1.55555556 L12.2573487,1.55555556 L21.2739205,23.9313839 L17.5090277,23.9313839 L15.1040702,17.8491484 L6.43653369,17.8491484 L4.0951319,23.9313839 L0.298982188,23.9313839 Z M10.8026008,5.49499667 L7.06844389,15.2328011 L14.4091253,15.2328011 L10.8026008,5.49499667 Z" id="Fill-2"></path><path d="M29.9007086,23.4324884 C28.7611343,23.4324884 27.7119446,23.2069993 26.7526185,22.7552428 C25.7927714,22.3034864 24.9649846,21.6887758 24.2687373,20.9118896 C23.573011,20.1344844 23.0294015,19.2312309 22.6399927,18.2010912 C22.249542,17.1717299 22.0547074,16.0689355 22.0547074,14.8919295 C22.0547074,13.7154424 22.2391231,12.6071989 22.6082149,11.5669395 C22.9770462,10.5269395 23.4886174,9.62394544 24.1429283,8.85666001 C24.7956765,8.09041251 25.5820478,7.48063207 26.4994376,7.02913506 C27.416567,6.5771191 28.4136619,6.35137059 29.4891595,6.35137059 C30.7753807,6.35137059 31.9251134,6.66638057 32.9367948,7.29666001 C33.9500391,7.92745842 34.741099,8.74638057 35.3102349,9.75498337 L35.3102349,0.111111111 L38.79069,0.111111111 L38.79069,19.0202728 C38.79069,19.7348836 39.128004,20.1134664 39.8028924,20.1549834 L39.8028924,23.1174784 C39.4436986,23.1805323 39.128004,23.2220492 38.8537248,23.2435862 C38.579706,23.2640852 38.3267856,23.2752428 38.0949637,23.2752428 C36.7863417,23.149654 36.0484186,22.5502528 35.8793709,21.4785961 L35.8163361,20.1235862 C35.1831236,21.1947239 34.3402294,22.0144245 33.2858301,22.58165 C32.2301286,23.149654 31.1022757,23.4324884 29.9007086,23.4324884 M30.7863206,20.4702528 C31.2291266,20.4702528 31.693031,20.3866999 32.1782942,20.2177778 C32.6627761,20.050153 33.1162615,19.8186959 33.5382296,19.5247039 C33.9599371,19.2312309 34.3303313,18.8843047 34.6457655,18.4847039 C34.9619811,18.0858816 35.1831236,17.655143 35.3102349,17.1927478 L35.3102349,12.8747239 C35.1211307,12.3708117 34.8567495,11.9037458 34.5189146,11.4724884 C34.1816006,11.0422688 33.7958385,10.6639454 33.3652748,10.3380373 C32.9321063,10.0121291 32.4728904,9.76043247 31.9881481,9.58165003 C31.5026244,9.40338656 31.0181425,9.3138656 30.5328793,9.3138656 C29.7941747,9.3138656 29.1250167,9.47163007 28.5243634,9.78612109 C27.9229287,10.1019095 27.4058875,10.5220093 26.973761,11.0469395 C26.5416344,11.5723886 26.209009,12.1767199 25.9774475,12.8588955 C25.7448441,13.5418496 25.6289331,14.2406321 25.6289331,14.9547239 C25.6289331,15.7116301 25.7609935,16.4254624 26.0245933,17.0982967 C26.2884536,17.7703526 26.646866,18.353666 27.1003514,18.8471989 C27.5538368,19.3415103 28.0971858,19.7348836 28.729617,20.0291351 C29.3628295,20.323646 30.047616,20.4702528 30.7863206,20.4702528" id="Fill-3"></path><polygon id="Fill-5" points="47.2360644 23.8158283 40.9096692 7.33333333 44.5151519 7.33333333 49.2294728 20.8847305 54.007089 7.33333333 57.2963561 7.33333333 50.9686585 23.8158283"></polygon><path d="M63.9136614,24.4144511 C63.1114011,24.4144511 62.3690499,24.2834132 61.684003,24.0205589 C60.9968722,23.758483 60.4068984,23.3962475 59.912258,22.9335928 C59.4165758,22.4717166 59.0261251,21.925509 58.7414269,21.2944511 C58.4575101,20.6646906 58.3142494,19.981996 58.3142494,19.2463673 C58.3142494,18.4692216 58.4827761,17.7647305 58.821132,17.1347106 C59.1576645,16.5041717 59.6369369,15.9582236 60.2610329,15.4958283 C60.8817427,15.0339521 61.6199263,14.6763872 62.4753233,14.4246906 C63.3296784,14.1719561 64.2733761,14.0463673 65.3058955,14.0463673 C66.085234,14.0463673 66.8562374,14.1146108 67.6155194,14.2508383 C68.374541,14.3883633 69.0593274,14.5715569 69.6714416,14.801976 L69.6714416,13.6677844 C69.6714416,12.449521 69.3247506,11.4987824 68.6279823,10.8163473 C67.9319955,10.1328743 66.930212,9.79165669 65.6234134,9.79165669 C64.7372805,9.79165669 63.8665155,9.95487026 63.0121605,10.28 C62.1588473,10.6059082 61.2776633,11.0729741 60.3696506,11.682495 L59.2959763,9.47612774 C61.4250917,8.04820359 63.6393821,7.33333333 65.9398895,7.33333333 C68.2172146,7.33333333 69.9879176,7.91145709 71.2540823,9.0661477 C72.5194655,10.2223952 73.1518967,11.8828144 73.1518967,14.0463673 L73.1518967,20.0022355 C73.1518967,20.4018363 73.2248294,20.6859681 73.3738206,20.8535928 C73.5204676,21.021477 73.7736484,21.1164471 74.1323212,21.1369461 L74.1323212,24.0994411 C73.7944863,24.162495 73.4834802,24.204012 73.2000844,24.2255489 C72.9148652,24.2460479 72.6562145,24.2572056 72.424653,24.2572056 C71.7487226,24.2149102 71.237412,24.0366467 70.8899395,23.7216367 C70.5422066,23.4058483 70.3254921,22.986008 70.2410985,22.4605589 L70.1462859,21.4202994 C69.4081023,22.3879042 68.4961824,23.1276846 67.4094844,23.642495 C66.3230469,24.1573054 65.1579462,24.4144511 63.9136614,24.4144511 M64.8623081,21.8616766 C65.7067651,21.8616766 66.5030345,21.7098802 67.2516371,21.4052495 C67.9994583,21.1006188 68.5857855,20.6750699 69.0074931,20.1286028 C69.4510805,19.7505389 69.6714416,19.3517166 69.6714416,18.9305788 L69.6714416,16.7563872 C69.0814677,16.5251896 68.4539856,16.3466667 67.7900371,16.2205589 C67.1242653,16.0944511 66.4767266,16.0316567 65.8427326,16.0316567 C64.5992292,16.0316567 63.5818173,16.2991816 62.790497,16.8352695 C62.000479,17.3703194 61.6045583,18.0802595 61.6045583,18.962495 C61.6045583,19.7824551 61.909834,20.4700798 62.5219482,21.0269261 C63.13276,21.583513 63.9136614,21.8616766 64.8623081,21.8616766" id="Fill-6"></path><path d="M92.037334,24.0997006 L88.5568789,24.0997006 L88.5568789,14.8658084 C88.5568789,13.3112575 88.30474,12.181996 87.7978573,11.4782834 C87.2917561,10.7740519 86.5647729,10.4216766 85.6145633,10.4216766 C85.1089831,10.4216766 84.5981933,10.5163872 84.0806313,10.7055489 C83.5630692,10.8949701 83.0837969,11.1627545 82.6402094,11.5091617 C82.1981849,11.8560878 81.8033061,12.2652894 81.4555732,12.7383234 C81.1062774,13.2108383 80.8382495,13.7310978 80.647843,14.2980639 L80.647843,24.0997006 L77.1692112,24.0997006 L77.1692112,7.61720559 L80.3316274,7.61720559 L80.3316274,10.9261078 C80.9653609,9.81319361 81.8830112,8.93588822 83.0837969,8.29471058 C84.2864058,7.65431138 85.6145633,7.33333333 87.0698322,7.33333333 C88.0622386,7.33333333 88.877783,7.51237525 89.5219355,7.86916168 C90.1658275,8.22620758 90.6714077,8.71506986 91.0410205,9.33471058 C91.4095914,9.95487026 91.6677212,10.6689621 91.815931,11.4782834 C91.9628384,12.2870858 92.037334,13.1433733 92.037334,14.0463673 L92.037334,24.0997006 Z" id="Fill-8"></path><path d="M103.08322,24.4144511 C101.776421,24.4144511 100.601423,24.182994 99.5566611,23.7216367 C98.5132018,23.259501 97.621078,22.6393413 96.8828944,21.8616766 C96.1449712,21.0853094 95.5750538,20.1758283 95.1749656,19.1355689 C94.7740959,18.0960878 94.5737913,17.0078244 94.5737913,15.8738922 C94.5737913,14.7389222 94.7740959,13.6522156 95.1749656,12.6119561 C95.5750538,11.5719561 96.151483,10.663513 96.8998252,9.8858483 C97.6479068,9.10870259 98.5449797,8.48932136 99.588439,8.02692615 C100.632159,7.56427146 101.797259,7.33333333 103.08322,7.33333333 C104.370223,7.33333333 105.535584,7.56427146 106.579043,8.02692615 C107.623544,8.48932136 108.520357,9.10870259 109.26922,9.8858483 C110.018343,10.663513 110.592428,11.5719561 110.993298,12.6119561 C111.393647,13.6522156 111.594472,14.7389222 111.594472,15.8738922 C111.594472,17.0078244 111.393647,18.0960878 110.993298,19.1355689 C110.592428,20.1758283 110.018343,21.0853094 109.26922,21.8616766 C108.520357,22.6393413 107.623544,23.259501 106.579043,23.7216367 C105.535584,24.182994 104.370223,24.4144511 103.08322,24.4144511 M98.149059,15.9052894 C98.149059,16.7042315 98.2751285,17.4390818 98.5285698,18.1113972 C98.7807087,18.784491 99.1294836,19.3672854 99.5720291,19.8608184 C100.015877,20.3546108 100.537346,20.7430539 101.13826,21.0269261 C101.739695,21.3102794 102.388536,21.4522156 103.08322,21.4522156 C103.779728,21.4522156 104.428829,21.3102794 105.030004,21.0269261 C105.630917,20.7430539 106.152908,20.3491617 106.595453,19.84499 C107.03852,19.3408184 107.386773,18.7523154 107.638912,18.0802595 C107.892875,17.4074251 108.018944,16.6728343 108.018944,15.8738922 C108.018944,15.0967465 107.892875,14.3670858 107.638912,13.6838723 C107.386773,13.0006587 107.03852,12.407485 106.595453,11.9030539 C106.152908,11.3991417 105.630917,11.0047305 105.030004,10.7213772 C104.428829,10.437505 103.779728,10.2958283 103.08322,10.2958283 C102.409374,10.2958283 101.770952,10.4434731 101.170038,10.7369461 C100.569124,11.0311976 100.046873,11.43002 99.6043279,11.9341916 C99.1615219,12.4391417 98.807798,13.0328343 98.5449797,13.7152695 C98.2808589,14.3982236 98.149059,15.1286627 98.149059,15.9052894" id="Fill-10"></path><path d="M129.7483,24.0997006 L126.267844,24.0997006 L126.267844,14.8658084 C126.267844,13.3112575 126.015706,12.181996 125.508823,11.4782834 C125.002722,10.7740519 124.274176,10.4216766 123.326571,10.4216766 C122.819949,10.4216766 122.307596,10.5163872 121.792639,10.7055489 C121.275077,10.8949701 120.795804,11.1627545 120.352217,11.5091617 C119.910192,11.8560878 119.514272,12.2652894 119.166539,12.7383234 C118.818545,13.2108383 118.549215,13.7310978 118.358809,14.2980639 L118.358809,24.0997006 L114.879135,24.0997006 L114.879135,7.61720559 L118.043635,7.61720559 L118.043635,10.9261078 C118.675285,9.81319361 119.592674,8.93588822 120.795804,8.29471058 C121.998413,7.65431138 123.326571,7.33333333 124.78184,7.33333333 C125.772162,7.33333333 126.58979,7.51237525 127.232901,7.86916168 C127.875751,8.22620758 128.383415,8.71506986 128.753028,9.33471058 C129.121599,9.95487026 129.378687,10.6689621 129.527938,11.4782834 C129.674846,12.2870858 129.7483,13.1433733 129.7483,14.0463673 L129.7483,24.0997006 Z" id="Fill-12"></path></g><g id="Group-3" fill="#37A1E4"><path d="M28.4895687,17.1427926 C26.911336,17.1427926 26.1941106,16.4465052 24.9212337,14.0438704 C24.081385,12.4920141 23.1672411,10.8544094 22.3096,9.2491399 C22.1826489,9.01225367 22.0532935,8.7691399 21.8840254,8.55931954 C21.4204616,7.98997822 20.8374003,7.98997822 20.3570059,8.55381056 C20.2204373,8.71476864 20.1127213,8.90159499 20.011497,9.08698421 C15.7814776,16.8589603 11.6017096,24.5221938 7.37505631,32.295607 C6.59074873,33.7391998 5.39745671,34.4819543 3.73747523,34.4548884 C2.97961578,34.4426728 2.22055414,34.4548884 1.46293513,34.4381219 C0.0784951921,34.4096189 -0.355254314,33.6757267 0.298736072,32.4613555 C2.55957122,28.2728525 4.77760847,24.1914153 7.04301193,20.0033914 C10.268002,14.0429124 13.4939539,8.08243331 16.712933,2.12123571 C17.4741586,0.708062054 18.6496582,0.00674468864 20.2519347,0.0024333114 C20.8563949,0.00123570661 21.4586912,-0.0033151916 22.060747,0.00434947906 C23.5947392,0.0199183413 24.7519656,0.690816545 25.4759233,2.0342896 C27.829327,6.39596625 30.1680639,10.7653076 32.5104074,15.1334513 C32.6104295,15.3202776 32.7174242,15.5111758 32.7715227,15.7133315 C32.9915231,16.5200381 32.5676316,17.1035112 31.7280233,17.1372836 C31.1651588,17.1612357 29.0541163,17.1427926 28.4895687,17.1427926" id="Fill-14"></path><path d="M40.1836669,30.3994481 C39.0812603,28.3972924 38.1440344,26.5817236 37.0257589,24.5884301 C36.3311346,23.3496277 35.2994166,22.6952565 33.7834573,22.6751367 C32.8683516,22.6617236 31.9554099,22.666514 31.0431895,22.6739391 C29.8652855,22.6849571 29.3995578,23.4490289 29.9316463,24.5084301 C29.9857448,24.6147774 30.0405645,24.7208852 30.0973078,24.8267535 L31.6373109,27.5218433 C31.9715192,28.2334601 31.1509056,28.2334601 31.1509056,28.2334601 L27.7941556,28.2334601 C24.229908,28.2334601 20.6642178,28.2298673 17.0990085,28.2377715 C15.5241419,28.2404062 14.7318999,29.0437595 14.7287742,30.5977715 C14.7282933,30.9845978 14.7249272,31.3721427 14.7287742,31.7611247 C14.7412769,33.1457954 15.6013224,33.99849 16.9920137,34.0006457 C19.0912748,34.0047176 21.191738,34.0028014 23.2919608,34.0028014 C24.7922917,34.0028014 26.2938248,33.99849 27.7953578,34.0006457 L27.7941556,33.99849 L31.1509056,33.99849 C31.1509056,33.99849 31.9715192,33.99849 31.6373109,34.7110649 L30.4132429,36.8535798 C30.2603245,37.1323822 30.1119745,37.4119032 29.9787721,37.6986098 C29.5426182,38.638011 29.946313,39.3278313 30.9809162,39.392023 C31.9114098,39.4471128 32.8455101,39.432023 33.7772059,39.4169331 C35.2765751,39.392981 36.4330801,38.7740589 37.1570379,37.4468733 C38.2147231,35.5105858 39.1577195,33.7311846 40.2110768,31.7915439 C40.5094599,31.2430409 40.4767604,30.9280709 40.1836669,30.3994481" id="Fill-16"></path></g></g></g></g></svg>
