<?xml version="1.0" encoding="UTF-8"?>
<svg width="156px" height="32px" viewBox="0 0 156 32" version="1.1" xmlns="http://www.w3.org/2000/svg" xmlns:xlink="http://www.w3.org/1999/xlink">
    <defs>
        <linearGradient x1="95.059%" y1="50%" x2="5.575%" y2="50%" id="linearGradient-1">
            <stop stop-color="#00C5EB" offset="0%"></stop>
            <stop stop-color="#0088FF" offset="100%"></stop>
        </linearGradient>
        <linearGradient x1="95.059%" y1="50%" x2="5.575%" y2="50%" id="linearGradient-2">
            <stop stop-color="#2ED4FF" offset="0%"></stop>
            <stop stop-color="#0088FF" offset="98.277%"></stop>
        </linearGradient>
        <linearGradient x1="48.165%" y1="66.639%" x2="0%" y2="0%" id="linearGradient-3">
            <stop stop-color="#4F40DC" stop-opacity="0.24" offset="0%"></stop>
            <stop stop-color="#3525D3" offset="100%"></stop>
        </linearGradient>
    </defs>
    <g stroke="none" stroke-width="1" fill="none" fill-rule="evenodd">
        <g transform="translate(-873.000000, -48.000000)" fill-rule="nonzero">
            <g transform="translate(873.000000, 48.000000)">
                <path d="M43.8154297,24 L43.8154297,8.359375 L48.9287109,8.359375 C50.625985,8.359375 51.9025022,8.71028295 52.7583008,9.41210938 C53.6140993,10.1139358 54.0419922,11.1523369 54.0419922,12.5273438 C54.0419922,13.2578162 53.834312,13.9041313 53.4189453,14.4663086 C53.0035787,15.0284859 52.4378291,15.4635401 51.7216797,15.7714844 C52.566736,16.0078137 53.2345353,16.4571907 53.7250977,17.1196289 C54.21566,17.7820671 54.4609375,18.57161 54.4609375,19.4882812 C54.4609375,20.8919341 54.0061894,21.9947877 53.0966797,22.796875 C52.1871699,23.5989623 50.901701,24 49.2402344,24 L43.8154297,24 Z M45.8779297,16.6845703 L45.8779297,22.3134766 L49.2832031,22.3134766 C50.2428433,22.3134766 51.00016,22.0646184 51.5551758,21.5668945 C52.1101916,21.0691707 52.3876953,20.3834679 52.3876953,19.5097656 C52.3876953,17.6262927 51.363617,16.6845703 49.3154297,16.6845703 L45.8779297,16.6845703 Z M45.8779297,15.0302734 L48.9931641,15.0302734 C49.8955123,15.0302734 50.617022,14.8046898 51.1577148,14.3535156 C51.6984077,13.9023415 51.96875,13.2900429 51.96875,12.5166016 C51.96875,11.6572223 51.7181015,11.0323913 51.2167969,10.6420898 C50.7154923,10.2517884 49.9528046,10.0566406 48.9287109,10.0566406 L45.8779297,10.0566406 L45.8779297,15.0302734 Z M62.8183594,14.1601562 C62.5175766,14.1100258 62.1917335,14.0849609 61.8408203,14.0849609 C60.5374284,14.0849609 59.6529971,14.6399684 59.1875,15.75 L59.1875,24 L57.2001953,24 L57.2001953,12.3769531 L59.1337891,12.3769531 L59.1660156,13.7197266 C59.8177116,12.6813099 60.7415305,12.1621094 61.9375,12.1621094 C62.3242207,12.1621094 62.6178375,12.2122391 62.8183594,12.3125 L62.8183594,14.1601562 Z M71.8203125,24 C71.7057286,23.7708322 71.6126306,23.3626331 71.5410156,22.7753906 C70.6171829,23.7350308 69.5143293,24.2148438 68.2324219,24.2148438 C67.0865828,24.2148438 66.1466508,23.890791 65.4125977,23.2426758 C64.6785445,22.5945606 64.3115234,21.7727914 64.3115234,20.7773438 C64.3115234,19.5670512 64.7716425,18.6271192 65.6918945,17.9575195 C66.6121465,17.2879198 67.9065672,16.953125 69.5751953,16.953125 L71.5087891,16.953125 L71.5087891,16.0400391 C71.5087891,15.3453741 71.3011088,14.792157 70.8857422,14.3803711 C70.4703755,13.9685852 69.858077,13.7626953 69.0488281,13.7626953 C68.3398402,13.7626953 67.7454451,13.94173 67.265625,14.2998047 C66.7858049,14.6578794 66.5458984,15.0911433 66.5458984,15.5996094 L64.5478516,15.5996094 C64.5478516,15.0195283 64.7537414,14.4591498 65.1655273,13.918457 C65.5773133,13.3777642 66.1359014,12.9498714 66.8413086,12.6347656 C67.5467158,12.3196599 68.3219359,12.1621094 69.1669922,12.1621094 C70.5061916,12.1621094 71.5553347,12.4969042 72.3144531,13.1665039 C73.0735715,13.8361036 73.4674478,14.7581321 73.4960938,15.9326172 L73.4960938,21.2822266 C73.4960938,22.3492892 73.6321601,23.1979135 73.9042969,23.828125 L73.9042969,24 L71.8203125,24 Z M68.5224609,22.4853516 C69.1455109,22.4853516 69.7363253,22.3242204 70.2949219,22.0019531 C70.8535184,21.6796859 71.2581368,21.2607448 71.5087891,20.7451172 L71.5087891,18.3603516 L69.9511719,18.3603516 C67.5162639,18.3603516 66.2988281,19.0729095 66.2988281,20.4980469 C66.2988281,21.1210969 66.5065083,21.6080712 66.921875,21.9589844 C67.3372417,22.3098976 67.870765,22.4853516 68.5224609,22.4853516 Z M78.7705078,24 L76.7832031,24 L76.7832031,12.3769531 L78.7705078,12.3769531 L78.7705078,24 Z M76.6220703,9.29394531 C76.6220703,8.97167808 76.7205394,8.69954538 76.9174805,8.47753906 C77.1144216,8.25553274 77.4062481,8.14453125 77.7929688,8.14453125 C78.1796894,8.14453125 78.4733063,8.25553274 78.6738281,8.47753906 C78.87435,8.69954538 78.9746094,8.97167808 78.9746094,9.29394531 C78.9746094,9.61621255 78.87435,9.88476455 78.6738281,10.0996094 C78.4733063,10.3144542 78.1796894,10.421875 77.7929688,10.421875 C77.4062481,10.421875 77.1144216,10.3144542 76.9174805,10.0996094 C76.7205394,9.88476455 76.6220703,9.61621255 76.6220703,9.29394531 Z M83.8300781,12.3769531 L83.8945312,13.8378906 C84.7825565,12.7206975 85.9427012,12.1621094 87.375,12.1621094 C89.8313925,12.1621094 91.0703124,13.5478377 91.0917969,16.3193359 L91.0917969,24 L89.1044922,24 L89.1044922,16.3085938 C89.0973307,15.4706989 88.9057636,14.851239 88.5297852,14.4501953 C88.1538067,14.0491516 87.5683633,13.8486328 86.7734375,13.8486328 C86.128903,13.8486328 85.5631535,14.0205061 85.0761719,14.3642578 C84.5891903,14.7080095 84.2096368,15.1591769 83.9375,15.7177734 L83.9375,24 L81.9501953,24 L81.9501953,12.3769531 L83.8300781,12.3769531 Z M101.264648,24 C101.150065,23.7708322 101.056967,23.3626331 100.985352,22.7753906 C100.061519,23.7350308 98.9586653,24.2148438 97.6767578,24.2148438 C96.5309187,24.2148438 95.5909867,23.890791 94.8569336,23.2426758 C94.1228804,22.5945606 93.7558594,21.7727914 93.7558594,20.7773438 C93.7558594,19.5670512 94.2159785,18.6271192 95.1362305,17.9575195 C96.0564825,17.2879198 97.3509031,16.953125 99.0195312,16.953125 L100.953125,16.953125 L100.953125,16.0400391 C100.953125,15.3453741 100.745445,14.792157 100.330078,14.3803711 C99.9147115,13.9685852 99.3024129,13.7626953 98.4931641,13.7626953 C97.7841761,13.7626953 97.189781,13.94173 96.7099609,14.2998047 C96.2301408,14.6578794 95.9902344,15.0911433 95.9902344,15.5996094 L93.9921875,15.5996094 C93.9921875,15.0195283 94.1980774,14.4591498 94.6098633,13.918457 C95.0216492,13.3777642 95.5802374,12.9498714 96.2856445,12.6347656 C96.9910517,12.3196599 97.7662718,12.1621094 98.6113281,12.1621094 C99.9505275,12.1621094 100.999671,12.4969042 101.758789,13.1665039 C102.517907,13.8361036 102.911784,14.7581321 102.94043,15.9326172 L102.94043,21.2822266 C102.94043,22.3492892 103.076496,23.1979135 103.348633,23.828125 L103.348633,24 L101.264648,24 Z M97.9667969,22.4853516 C98.5898469,22.4853516 99.1806613,22.3242204 99.7392578,22.0019531 C100.297854,21.6796859 100.702473,21.2607448 100.953125,20.7451172 L100.953125,18.3603516 L99.3955078,18.3603516 C96.9605998,18.3603516 95.7431641,19.0729095 95.7431641,20.4980469 C95.7431641,21.1210969 95.9508443,21.6080712 96.3662109,21.9589844 C96.7815776,22.3098976 97.3151009,22.4853516 97.9667969,22.4853516 Z M108.214844,24 L106.227539,24 L106.227539,7.5 L108.214844,7.5 L108.214844,24 Z M115.197266,21.0888672 L117.904297,12.3769531 L120.03125,12.3769531 L115.358398,25.7939453 C114.635088,27.7275487 113.485685,28.6943359 111.910156,28.6943359 L111.53418,28.6621094 L110.792969,28.5224609 L110.792969,26.9111328 L111.330078,26.9541016 C112.003259,26.9541016 112.52783,26.8180352 112.903809,26.5458984 C113.279787,26.2737617 113.589517,25.7760453 113.833008,25.0527344 L114.273438,23.8710938 L110.126953,12.3769531 L112.296875,12.3769531 L115.197266,21.0888672 Z M124.5,9.5625 L124.5,12.3769531 L126.669922,12.3769531 L126.669922,13.9130859 L124.5,13.9130859 L124.5,21.1210938 C124.5,21.5865909 124.596679,21.9357085 124.790039,22.168457 C124.983399,22.4012056 125.312823,22.5175781 125.77832,22.5175781 C126.007488,22.5175781 126.322589,22.4746098 126.723633,22.3886719 L126.723633,24 C126.200844,24.1432299 125.692385,24.2148438 125.198242,24.2148438 C124.310217,24.2148438 123.640627,23.9462917 123.189453,23.4091797 C122.738279,22.8720676 122.512695,22.1093799 122.512695,21.1210938 L122.512695,13.9130859 L120.396484,13.9130859 L120.396484,12.3769531 L122.512695,12.3769531 L122.512695,9.5625 L124.5,9.5625 Z M131.149414,24 L129.162109,24 L129.162109,12.3769531 L131.149414,12.3769531 L131.149414,24 Z M129.000977,9.29394531 C129.000977,8.97167808 129.099446,8.69954538 129.296387,8.47753906 C129.493328,8.25553274 129.785154,8.14453125 130.171875,8.14453125 C130.558596,8.14453125 130.852213,8.25553274 131.052734,8.47753906 C131.253256,8.69954538 131.353516,8.97167808 131.353516,9.29394531 C131.353516,9.61621255 131.253256,9.88476455 131.052734,10.0996094 C130.852213,10.3144542 130.558596,10.421875 130.171875,10.421875 C129.785154,10.421875 129.493328,10.3144542 129.296387,10.0996094 C129.099446,9.88476455 129.000977,9.61621255 129.000977,9.29394531 Z M138.991211,22.5927734 C139.700199,22.5927734 140.319659,22.3779318 140.849609,21.9482422 C141.37956,21.5185525 141.673177,20.9814485 141.730469,20.3369141 L143.610352,20.3369141 C143.574544,21.002933 143.34538,21.6367157 142.922852,22.2382812 C142.500323,22.8398468 141.936364,23.3196597 141.230957,23.6777344 C140.52555,24.0358091 139.778975,24.2148438 138.991211,24.2148438 C137.408521,24.2148438 136.149907,23.6866915 135.215332,22.6303711 C134.280757,21.5740507 133.813477,20.1292409 133.813477,18.2958984 L133.813477,17.9628906 C133.813477,16.8313746 134.021157,15.8251997 134.436523,14.9443359 C134.85189,14.0634722 135.448076,13.3795597 136.225098,12.8925781 C137.00212,12.4055965 137.920568,12.1621094 138.980469,12.1621094 C140.283861,12.1621094 141.36702,12.552405 142.22998,13.3330078 C143.092941,14.1136107 143.55306,15.1269469 143.610352,16.3730469 L141.730469,16.3730469 C141.673177,15.62109 141.388512,15.0034204 140.876465,14.5200195 C140.364418,14.0366187 139.732426,13.7949219 138.980469,13.7949219 C137.970698,13.7949219 137.188317,14.1583623 136.633301,14.8852539 C136.078285,15.6121456 135.800781,16.6630791 135.800781,18.0380859 L135.800781,18.4140625 C135.800781,19.7532619 136.076495,20.7845016 136.62793,21.5078125 C137.179365,22.2311234 137.967117,22.5927734 138.991211,22.5927734 Z M153.020508,24 C152.905924,23.7708322 152.812826,23.3626331 152.741211,22.7753906 C151.817378,23.7350308 150.714525,24.2148438 149.432617,24.2148438 C148.286778,24.2148438 147.346846,23.890791 146.612793,23.2426758 C145.87874,22.5945606 145.511719,21.7727914 145.511719,20.7773438 C145.511719,19.5670512 145.971838,18.6271192 146.89209,17.9575195 C147.812342,17.2879198 149.106762,16.953125 150.775391,16.953125 L152.708984,16.953125 L152.708984,16.0400391 C152.708984,15.3453741 152.501304,14.792157 152.085938,14.3803711 C151.670571,13.9685852 151.058272,13.7626953 150.249023,13.7626953 C149.540036,13.7626953 148.94564,13.94173 148.46582,14.2998047 C147.986,14.6578794 147.746094,15.0911433 147.746094,15.5996094 L145.748047,15.5996094 C145.748047,15.0195283 145.953937,14.4591498 146.365723,13.918457 C146.777509,13.3777642 147.336097,12.9498714 148.041504,12.6347656 C148.746911,12.3196599 149.522131,12.1621094 150.367188,12.1621094 C151.706387,12.1621094 152.75553,12.4969042 153.514648,13.1665039 C154.273767,13.8361036 154.667643,14.7581321 154.696289,15.9326172 L154.696289,21.2822266 C154.696289,22.3492892 154.832355,23.1979135 155.104492,23.828125 L155.104492,24 L153.020508,24 Z M149.722656,22.4853516 C150.345706,22.4853516 150.936521,22.3242204 151.495117,22.0019531 C152.053714,21.6796859 152.458332,21.2607448 152.708984,20.7451172 L152.708984,18.3603516 L151.151367,18.3603516 C148.716459,18.3603516 147.499023,19.0729095 147.499023,20.4980469 C147.499023,21.1210969 147.706704,21.6080712 148.12207,21.9589844 C148.537437,22.3098976 149.07096,22.4853516 149.722656,22.4853516 Z" id="Brainalytica" fill="#3A3B3F"></path>
                <g>
                    <path d="M4,0 L24,0 C28.418278,2.705415e-16 32,3.581722 32,8 C32,12.418278 28.418278,16 24,16 L0,16 L0,4 C-2.705415e-16,1.790861 1.790861,4.05812251e-16 4,0 Z" fill="url(#linearGradient-1)"></path>
                    <path d="M0,16 L24,16 C28.418278,16 32,19.581722 32,24 C32,28.418278 28.418278,32 24,32 L4,32 C1.790861,32 2.705415e-16,30.209139 0,28 L0,16 Z" fill="url(#linearGradient-2)"></path>
                    <path d="M4,0 L16,0 L16,32 L4,32 C1.790861,32 2.705415e-16,30.209139 0,28 L0,4 C-2.705415e-16,1.790861 1.790861,4.05812251e-16 4,0 Z" fill="url(#linearGradient-3)" opacity="0.64"></path>
                </g>
            </g>
        </g>
    </g>
</svg>