<svg xmlns="http://www.w3.org/2000/svg" viewBox="0 0 2757.18 677.04"><title>Sem título-2</title><g style="isolation:isolate"><g id="Camada_1" data-name="Camada 1"><text transform="translate(589.78 543.05)" style="font-size:410.1684875488281px;fill:#fff;font-family:QuesatBlackDemo, Quesat Black Demo"><tspan style="letter-spacing:-0.1977536235712015em">S</tspan><tspan x="213.9" y="0">et</tspan><tspan x="528.13" y="0" style="letter-spacing:-0.022949315277126032em">T</tspan><tspan x="749.24" y="0" style="letter-spacing:0.0000011904406721198274em">AREFAS</tspan></text><polygon points="0 10.81 0 10.81 0 10.81 0 10.81" style="fill:#fff"/><path d="M425.75,655.34l-5.93,8.45L67.42,311.4,418.65,896.77s176.69-484.87,703-608.14C1010.15,289.82,660,321.56,425.75,655.34Z" transform="translate(-49.04 -269.95)" style="fill:#fff"/><path d="M425.75,655.34l-5.93,8.45L73.48,317.46,418.65,835.67s176.59-426.21,702.58-547C1009.22,289.91,659.69,322,425.75,655.34Z" transform="translate(-49.04 -269.95)" style="fill:#fff"/><path d="M417.53,637c220.93-307.62,538.86-358,675.08-364.77-135.63-10.51-453.69,3.2-674,317L123.19,342.65Z" transform="translate(-49.04 -269.95)" style="fill:#fff"/><polygon points="0 10.81 0 10.81 0 10.81 0 10.81" style="fill:#fff"/><path d="M425.75,655.34l-5.93,8.45-1.17,233s174.71-479.2,694-605.9l2.43-2.12C997,291.13,655.64,327.78,425.75,655.34Z" transform="translate(-49.04 -269.95)" style="fill:#fff;mix-blend-mode:overlay"/><path d="M1092.61,272.21c-135.63-10.51-453.69,3.2-674,317L417.53,637C638.46,329.36,956.39,279,1092.61,272.21Z" transform="translate(-49.04 -269.95)" style="fill:#fff"/></g></g></svg>